<svg xmlns="http://www.w3.org/2000/svg" xmlns:xlink="http://www.w3.org/1999/xlink" xmlns:lucid="lucid" width="1555" height="856"><g transform="translate(-678 -438)" lucid:page-tab-id="6wuGaPVyWii4"><path d="M500 0h2000v1500H500z" fill="#fff"/><path d="M987.64 488.06a20 20 0 0 1 20-20h1170.6a20 20 0 0 1 20 20v751.04a20 20 0 0 1-20 20h-1170.6a20 20 0 0 1-20-20z" stroke="#979ea8" stroke-width="2" fill="#979ea8"/><path d="M708.57 556.57h262.9v619.3h-262.9z" fill="none"/><use xlink:href="#a" transform="matrix(1,0,0,1,708.5700137366473,556.5666484848779) translate(0 19.555555555555557)"/><use xlink:href="#b" transform="matrix(1,0,0,1,708.5700137366473,556.5666484848779) translate(0 54.75555555555556)"/><use xlink:href="#a" transform="matrix(1,0,0,1,708.5700137366473,556.5666484848779) translate(0 89.95555555555556)"/><use xlink:href="#c" transform="matrix(1,0,0,1,708.5700137366473,556.5666484848779) translate(0 125.15555555555557)"/><use xlink:href="#d" transform="matrix(1,0,0,1,708.5700137366473,556.5666484848779) translate(0 160.35555555555555)"/><use xlink:href="#e" transform="matrix(1,0,0,1,708.5700137366473,556.5666484848779) translate(13.580246913580247 160.35555555555555)"/><use xlink:href="#f" transform="matrix(1,0,0,1,708.5700137366473,556.5666484848779) translate(0 195.55555555555554)"/><use xlink:href="#g" transform="matrix(1,0,0,1,708.5700137366473,556.5666484848779) translate(40.74074074074075 195.55555555555554)"/><use xlink:href="#h" transform="matrix(1,0,0,1,708.5700137366473,556.5666484848779) translate(0 230.75555555555553)"/><use xlink:href="#e" transform="matrix(1,0,0,1,708.5700137366473,556.5666484848779) translate(40.74074074074075 230.75555555555553)"/><use xlink:href="#i" transform="matrix(1,0,0,1,708.5700137366473,556.5666484848779) translate(0 265.9555555555555)"/><use xlink:href="#j" transform="matrix(1,0,0,1,708.5700137366473,556.5666484848779) translate(54.320987654321 265.9555555555555)"/><use xlink:href="#k" transform="matrix(1,0,0,1,708.5700137366473,556.5666484848779) translate(0 301.1555555555555)"/><use xlink:href="#l" transform="matrix(1,0,0,1,708.5700137366473,556.5666484848779) translate(67.90123456790126 301.1555555555555)"/><use xlink:href="#m" transform="matrix(1,0,0,1,708.5700137366473,556.5666484848779) translate(0 336.3555555555555)"/><use xlink:href="#n" transform="matrix(1,0,0,1,708.5700137366473,556.5666484848779) translate(81.48148148148151 336.3555555555555)"/><use xlink:href="#m" transform="matrix(1,0,0,1,708.5700137366473,556.5666484848779) translate(0 371.5555555555555)"/><use xlink:href="#o" transform="matrix(1,0,0,1,708.5700137366473,556.5666484848779) translate(81.48148148148151 371.5555555555555)"/><use xlink:href="#i" transform="matrix(1,0,0,1,708.5700137366473,556.5666484848779) translate(0 406.7555555555555)"/><use xlink:href="#p" transform="matrix(1,0,0,1,708.5700137366473,556.5666484848779) translate(54.320987654321 406.7555555555555)"/><use xlink:href="#k" transform="matrix(1,0,0,1,708.5700137366473,556.5666484848779) translate(0 441.95555555555546)"/><use xlink:href="#l" transform="matrix(1,0,0,1,708.5700137366473,556.5666484848779) translate(67.90123456790126 441.95555555555546)"/><use xlink:href="#m" transform="matrix(1,0,0,1,708.5700137366473,556.5666484848779) translate(0 477.15555555555545)"/><use xlink:href="#q" transform="matrix(1,0,0,1,708.5700137366473,556.5666484848779) translate(81.48148148148151 477.15555555555545)"/><use xlink:href="#m" transform="matrix(1,0,0,1,708.5700137366473,556.5666484848779) translate(0 512.3555555555555)"/><use xlink:href="#r" transform="matrix(1,0,0,1,708.5700137366473,556.5666484848779) translate(81.48148148148151 512.3555555555555)"/><use xlink:href="#m" transform="matrix(1,0,0,1,708.5700137366473,556.5666484848779) translate(0 547.5555555555554)"/><use xlink:href="#s" transform="matrix(1,0,0,1,708.5700137366473,556.5666484848779) translate(81.48148148148151 547.5555555555554)"/><use xlink:href="#m" transform="matrix(1,0,0,1,708.5700137366473,556.5666484848779) translate(0 582.7555555555555)"/><use xlink:href="#t" transform="matrix(1,0,0,1,708.5700137366473,556.5666484848779) translate(81.48148148148151 582.7555555555555)"/><use xlink:href="#u" transform="matrix(1,0,0,1,708.5700137366473,556.5666484848779) translate(0 617.9555555555555)"/><path d="M1014.83 538.74a20 20 0 0 1 20-20h1116.65a20 20 0 0 1 20 20v657.43a20 20 0 0 1-20 20H1034.83a20 20 0 0 1-20-20z" stroke="#dfe3e8" stroke-width="2" fill="#dfe3e8"/><path d="M1031.76 975.1a19 19 0 0 1 19-19H2129.2a19 19 0 0 1 19 19v192.86a19 19 0 0 1-19 19H1050.76a19 19 0 0 1-19-19z" stroke="#edf5ff" stroke-width="3" fill="#edf5ff"/><path d="M1263.4 593.23a19 19 0 0 1 19-19h618.63a19 19 0 0 1 19 19v149.8a19 19 0 0 1-19 19H1282.4a19 19 0 0 1-19-19z" stroke="#ced4db" stroke-width="3" fill="#edf5ff"/><path d="M1668.5 1001.83a19 19 0 0 1 19-19h422a19 19 0 0 1 19 19v122a19 19 0 0 1-19 19h-422a19 19 0 0 1-19-19zM1054.87 1001.83a19 19 0 0 1 19-19h422a19 19 0 0 1 19 19v122a19 19 0 0 1-19 19h-422a19 19 0 0 1-19-19z" stroke="#cfe4ff" stroke-width="3" fill="#cfe4ff"/><g filter="url(#v)"><path d="M1690.4 1017.05a.5.5 0 0 1 .5-.5h168.63a.5.5 0 0 1 .5.5v93.4a.5.5 0 0 1-.5.5H1690.9a.5.5 0 0 1-.5-.5z" fill="#fff" fill-opacity="0"/><path d="M1690.9 1016.55a.5.5 0 0 0-.5.5v93.4a.5.5 0 0 0 .5.5h168.63a.5.5 0 0 0 .5-.5v-93.4a.5.5 0 0 0-.5-.5z" stroke="#315796" stroke-width="3" fill="#315796"/><use xlink:href="#w" transform="matrix(1,0,0,1,1700.2320584085057,1027.5926777142167) translate(31.3671875 43.166666666666664)"/></g><g filter="url(#v)"><path d="M1930.4 1017.05a.5.5 0 0 1 .5-.5h168.63a.5.5 0 0 1 .5.5v93.4a.5.5 0 0 1-.5.5H1930.9a.5.5 0 0 1-.5-.5z" fill="#fff" fill-opacity="0"/><path d="M1930.9 1016.55a.5.5 0 0 0-.5.5v93.4a.5.5 0 0 0 .5.5h168.63a.5.5 0 0 0 .5-.5v-93.4a.5.5 0 0 0-.5-.5z" stroke="#315796" stroke-width="3" fill="#315796"/><use xlink:href="#x" transform="matrix(1,0,0,1,1940.2320584085062,1027.5926777142167) translate(31.3671875 43.166666666666664)"/></g><g filter="url(#v)"><path d="M1082.13 1017.05a.5.5 0 0 1 .5-.5h168.64a.5.5 0 0 1 .5.5v93.4a.5.5 0 0 1-.5.5h-168.64a.5.5 0 0 1-.5-.5z" fill="#fff" fill-opacity="0"/><path d="M1082.63 1016.55a.5.5 0 0 0-.5.5v93.4a.5.5 0 0 0 .5.5h168.64a.5.5 0 0 0 .5-.5v-93.4a.5.5 0 0 0-.5-.5z" stroke="#315796" stroke-width="3" fill="#315796"/><use xlink:href="#y" transform="matrix(1,0,0,1,1091.969437070754,1027.5926777142167) translate(31.3671875 43.166666666666664)"/></g><g filter="url(#v)"><path d="M1322.13 1017.05a.5.5 0 0 1 .5-.5h168.64a.5.5 0 0 1 .5.5v93.4a.5.5 0 0 1-.5.5h-168.64a.5.5 0 0 1-.5-.5z" fill="#fff" fill-opacity="0"/><path d="M1322.63 1016.55a.5.5 0 0 0-.5.5v93.4a.5.5 0 0 0 .5.5h168.64a.5.5 0 0 0 .5-.5v-93.4a.5.5 0 0 0-.5-.5z" stroke="#315796" stroke-width="3" fill="#315796"/><use xlink:href="#z" transform="matrix(1,0,0,1,1331.969437070754,1027.5926777142167) translate(31.3671875 43.166666666666664)"/></g><path d="M1254.77 1051.24h64.36" stroke="#5e5e5e" stroke-width="3" fill="none"/><path d="M1254.8 1052.74h-1.53v-3h1.54zM1320.63 1052.74h-1.54v-3h1.53z" stroke="#5e5e5e" stroke-width=".05" fill="#5e5e5e"/><path d="M1254.77 1076.27h64.36" stroke="#5e5e5e" stroke-width="3" fill="none"/><path d="M1254.8 1077.77h-1.53v-3h1.54zM1320.63 1077.77h-1.54v-3h1.53z" stroke="#5e5e5e" stroke-width=".05" fill="#5e5e5e"/><path d="M1863.03 1051.24h64.36" stroke="#5e5e5e" stroke-width="3" fill="none"/><path d="M1863.07 1052.74h-1.54v-3h1.54zM1928.9 1052.74h-1.55v-3h1.54z" stroke="#5e5e5e" stroke-width=".05" fill="#5e5e5e"/><path d="M1863.03 1076.27h64.36" stroke="#5e5e5e" stroke-width="3" fill="none"/><path d="M1863.07 1077.77h-1.54v-3h1.54zM1928.9 1077.77h-1.55v-3h1.54z" stroke="#5e5e5e" stroke-width=".05" fill="#5e5e5e"/><g filter="url(#A)"><path d="M1286.28 634.33a.5.5 0 0 1 .5-.5H1538a.5.5 0 0 1 .5.5v93.4a.5.5 0 0 1-.5.5H1286.8a.5.5 0 0 1-.5-.5z" fill="#fff" fill-opacity="0"/><path d="M1286.78 633.83a.5.5 0 0 0-.5.5v93.4a.5.5 0 0 0 .5.5H1538a.5.5 0 0 0 .5-.5v-93.4a.5.5 0 0 0-.5-.5z" stroke="#315796" stroke-width="3" fill="#315796"/><use xlink:href="#B" transform="matrix(1,0,0,1,1300.9123736068984,644.8714644793537) translate(58.967447916666664 43.166666666666664)"/></g><g filter="url(#C)"><path d="M1648.87 634.33a.5.5 0 0 1 .5-.5h251.16a.5.5 0 0 1 .5.5v93.4a.5.5 0 0 1-.5.5h-251.16a.5.5 0 0 1-.5-.5z" fill="#fff" fill-opacity="0"/><path d="M1649.37 633.83a.5.5 0 0 0-.5.5v93.4a.5.5 0 0 0 .5.5h251.16a.5.5 0 0 0 .5-.5v-93.4a.5.5 0 0 0-.5-.5z" stroke="#315796" stroke-width="3" fill="#315796"/><use xlink:href="#D" transform="matrix(1,0,0,1,1663.4929770430751,644.8714644793537) translate(58.967447916666664 43.166666666666664)"/></g><path d="M1199 1013.78L1380.35 731" stroke="#5e5e5e" stroke-width="3" fill="none"/><path d="M1200.28 1014.56l-.3.5h-3.58l1.36-2.12zM1382.94 729.74l-1.35 2.1-2.54-1.6.32-.5z" stroke="#5e5e5e" stroke-width=".05" fill="#5e5e5e"/><path d="M1245.6 1014.25l450.7-283.7" stroke="#5e5e5e" stroke-width="3" fill="none"/><path d="M1246.15 1015.05h-4.64l3.33-2.1zM1700.38 729.74l-3.32 2.1-1.3-2.1z" stroke="#5e5e5e" stroke-width=".05" fill="#5e5e5e"/><path d="M1407.66 1013.55l4.02-282.3" stroke="#5e5e5e" stroke-width="3" fill="none"/><path d="M1409.16 1013.53l-.02 1.52h-3l.02-1.56zM1413.2 729.74l-.02 1.56-3-.04.02-1.52z" stroke="#5e5e5e" stroke-width=".05" fill="#5e5e5e"/><path d="M1454.82 1013.97l272.25-283.15" stroke="#5e5e5e" stroke-width="3" fill="none"/><path d="M1455.93 1014.98l-.06.07h-4.17l2.07-2.15zM1730.2 729.74l-2.07 2.15-2.17-2.1.07-.06z" stroke="#5e5e5e" stroke-width=".05" fill="#5e5e5e"/><path d="M1728 1013.96l-268.4-283.13" stroke="#5e5e5e" stroke-width="3" fill="none"/><path d="M1731.1 1015.05h-4.13l-.08-.1 2.17-2.05zM1460.64 729.74l.08.1-2.18 2.05-2.04-2.16z" stroke="#5e5e5e" stroke-width=".05" fill="#5e5e5e"/><path d="M1775.18 1013.55l-.2-282.3" stroke="#5e5e5e" stroke-width="3" fill="none"/><path d="M1776.68 1015.05h-3v-1.54h3zM1776.48 729.74v1.54h-3v-1.54z" stroke="#5e5e5e" stroke-width=".05" fill="#5e5e5e"/><path d="M1937.22 1014.24l-446.84-283.7" stroke="#5e5e5e" stroke-width="3" fill="none"/><path d="M1941.3 1015.05h-4.63l1.33-2.1zM1490.94 729.74l-1.33 2.1-3.28-2.1z" stroke="#5e5e5e" stroke-width=".05" fill="#5e5e5e"/><path d="M1983.84 1013.77L1806.32 731" stroke="#5e5e5e" stroke-width="3" fill="none"/><path d="M1986.4 1015.05h-3.54l-.3-.5 2.53-1.6zM1807.3 729.74l.32.5-2.55 1.6-1.3-2.1z" stroke="#5e5e5e" stroke-width=".05" fill="#5e5e5e"/><path d="M1541.5 663.8h104.37" stroke="#5e5e5e" stroke-width="3" fill="none"/><path d="M1541.55 665.3H1540v-3h1.55zM1647.37 665.3h-1.54v-3h1.54z" stroke="#5e5e5e" stroke-width=".05" fill="#5e5e5e"/><path d="M1541.5 688.84h104.37" stroke="#5e5e5e" stroke-width="3" fill="none"/><path d="M1541.55 690.34H1540v-3h1.55zM1647.37 690.34h-1.54v-3h1.54z" stroke="#5e5e5e" stroke-width=".05" fill="#5e5e5e"/><g><path d="M1591.78 700.18c-3.82 0-6.9-10.37-6.9-23.18 0-12.8 3.08-23.18 6.9-23.18 3.8 0 6.9 10.38 6.9 23.18 0 12.8-3.1 23.18-6.9 23.18z" stroke="#5e5e5e" stroke-width="2" fill-opacity="0"/></g><g><path d="M1286.78 1086.18c-3.82 0-6.9-10.37-6.9-23.18 0-12.8 3.08-23.18 6.9-23.18 3.8 0 6.9 10.38 6.9 23.18 0 12.8-3.1 23.18-6.9 23.18z" stroke="#5e5e5e" stroke-width="2" fill-opacity="0"/></g><g><path d="M1893.78 1087.18c-3.82 0-6.9-10.37-6.9-23.18 0-12.8 3.08-23.18 6.9-23.18 3.8 0 6.9 10.38 6.9 23.18 0 12.8-3.1 23.18-6.9 23.18z" stroke="#5e5e5e" stroke-width="2" fill-opacity="0"/></g><path d="M987.64 471.95h1210.6v52.26H987.63z" fill="none"/><g><use xlink:href="#E" transform="matrix(1,0,0,1,987.6444659452977,471.95429970543853) translate(571.5833333333334 31.388888888888886)"/></g><path d="M1014.83 521.97h1156.65v52.25H1014.83z" fill="none"/><g><use xlink:href="#F" transform="matrix(1,0,0,1,1014.828776236302,521.9694132107987) translate(492.4691358024692 31.388888888888886)"/></g><path d="M1263.4 576.94h656.63v52.25H1263.4z" fill="none"/><g><use xlink:href="#G" transform="matrix(1,0,0,1,1263.4086802118895,576.9381632107987) translate(243.01234567901247 31.388888888888886)"/></g><path d="M1251.77 1142.83h656.62v44.13h-656.63z" fill="none"/><g><use xlink:href="#H" transform="matrix(1,0,0,1,1251.7689239123235,1142.8245825671856) translate(247.83333333333343 27.388888888888886)"/></g><defs><path fill="#3a414a" d="M25-224v-37h50v37H25zM25 0v-190h50V0H25" id="I"/><path fill="#3a414a" d="M135-194c87-1 58 113 63 194h-50c-7-57 23-157-34-157-59 0-34 97-39 157H25l-1-190h47c2 12-1 28 3 38 12-26 28-41 61-42" id="J"/><path fill="#3a414a" d="M128 0H69L1-190h53L99-40l48-150h52" id="K"/><path fill="#3a414a" d="M185-48c-13 30-37 53-82 52C43 2 14-33 14-96s30-98 90-98c62 0 83 45 84 108H66c0 31 8 55 39 56 18 0 30-7 34-22zm-45-69c5-46-57-63-70-21-2 6-4 13-4 21h74" id="L"/><path fill="#3a414a" d="M115-3C79 11 28 4 28-45v-112H4v-33h27l15-45h31v45h36v33H77v99c-1 23 16 31 38 25v30" id="M"/><path fill="#3a414a" d="M110-194c64 0 96 36 96 99 0 64-35 99-97 99-61 0-95-36-95-99 0-62 34-99 96-99zm-1 164c35 0 45-28 45-65 0-40-10-65-43-65-34 0-45 26-45 65 0 36 10 65 43 65" id="N"/><path fill="#3a414a" d="M135-150c-39-12-60 13-60 57V0H25l-1-190h47c2 13-1 29 3 40 6-28 27-53 61-41v41" id="O"/><path fill="#3a414a" d="M123 10C108 53 80 86 19 72V37c35 8 53-11 59-39L3-190h52l48 148c12-52 28-100 44-148h51" id="P"/><path fill="#3a414a" d="M24 0v-54h51V0H24" id="Q"/><path fill="#3a414a" d="M220-157c-53 9-28 100-34 157h-49v-107c1-27-5-49-29-50C55-147 81-57 75 0H25l-1-190h47c2 12-1 28 3 38 10-53 101-56 108 0 13-22 24-43 59-42 82 1 51 116 57 194h-49v-107c-1-25-5-48-29-50" id="R"/><path fill="#3a414a" d="M25 0v-261h50V0H25" id="S"/><g id="b"><use transform="matrix(0.06790123456790123,0,0,0.06790123456790123,0,0)" xlink:href="#I"/><use transform="matrix(0.06790123456790123,0,0,0.06790123456790123,6.790123456790123,0)" xlink:href="#J"/><use transform="matrix(0.06790123456790123,0,0,0.06790123456790123,21.660493827160494,0)" xlink:href="#K"/><use transform="matrix(0.06790123456790123,0,0,0.06790123456790123,35.24074074074074,0)" xlink:href="#L"/><use transform="matrix(0.06790123456790123,0,0,0.06790123456790123,48.82098765432099,0)" xlink:href="#J"/><use transform="matrix(0.06790123456790123,0,0,0.06790123456790123,63.691358024691354,0)" xlink:href="#M"/><use transform="matrix(0.06790123456790123,0,0,0.06790123456790123,71.77160493827161,0)" xlink:href="#N"/><use transform="matrix(0.06790123456790123,0,0,0.06790123456790123,86.64197530864196,0)" xlink:href="#O"/><use transform="matrix(0.06790123456790123,0,0,0.06790123456790123,96.14814814814814,0)" xlink:href="#P"/><use transform="matrix(0.06790123456790123,0,0,0.06790123456790123,107.89506172839508,0)" xlink:href="#Q"/><use transform="matrix(0.06790123456790123,0,0,0.06790123456790123,114.68518518518519,0)" xlink:href="#P"/><use transform="matrix(0.06790123456790123,0,0,0.06790123456790123,128.26543209876544,0)" xlink:href="#R"/><use transform="matrix(0.06790123456790123,0,0,0.06790123456790123,149.99382716049382,0)" xlink:href="#S"/><path fill="#3a414a" d="M-1.22 1.3H158V3.9H-1.2z"/></g><path fill="#3a414a" d="M169-182c-1-43-94-46-97-3 18 66 151 10 154 114 3 95-165 93-204 36-6-8-10-19-12-30l50-8c3 46 112 56 116 5-17-69-150-10-154-114-4-87 153-88 188-35 5 8 8 18 10 28" id="T"/><path fill="#3a414a" d="M24 0v-248h52V0H24" id="U"/><path fill="#3a414a" d="M136-208V0H84v-208H4v-40h212v40h-80" id="V"/><path fill="#3a414a" d="M24 0v-248h195v40H76v63h132v40H76v65h150V0H24" id="W"/><path fill="#3a414a" d="M23 0v-37h61v-169l-59 37v-38l62-41h46v211h57V0H23" id="X"/><path fill="#3a414a" d="M35-132v-50h50v50H35zM35 0v-49h50V0H35" id="Y"/><g id="c"><use transform="matrix(0.06790123456790123,0,0,0.06790123456790123,0,0)" xlink:href="#T"/><use transform="matrix(0.06790123456790123,0,0,0.06790123456790123,16.296296296296294,0)" xlink:href="#U"/><use transform="matrix(0.06790123456790123,0,0,0.06790123456790123,23.086419753086417,0)" xlink:href="#V"/><use transform="matrix(0.06790123456790123,0,0,0.06790123456790123,37.95679012345679,0)" xlink:href="#W"/><use transform="matrix(0.06790123456790123,0,0,0.06790123456790123,54.253086419753075,0)" xlink:href="#X"/><use transform="matrix(0.06790123456790123,0,0,0.06790123456790123,67.83333333333331,0)" xlink:href="#Y"/></g><path fill="#3a414a" d="M96-169c-40 0-48 33-48 73s9 75 48 75c24 0 41-14 43-38l32 2c-6 37-31 61-74 61-59 0-76-41-82-99-10-93 101-131 147-64 4 7 5 14 7 22l-32 3c-4-21-16-35-41-35" id="Z"/><path fill="#3a414a" d="M106-169C34-169 62-67 57 0H25v-261h32l-1 103c12-21 28-36 61-36 89 0 53 116 60 194h-32v-121c2-32-8-49-39-48" id="aa"/><path fill="#3a414a" d="M24-231v-30h32v30H24zM24 0v-190h32V0H24" id="ab"/><path fill="#3a414a" d="M24 0v-261h32V0H24" id="ac"/><path fill="#3a414a" d="M85-194c31 0 48 13 60 33l-1-100h32l1 261h-30c-2-10 0-23-3-31C134-8 116 4 85 4 32 4 16-35 15-94c0-66 23-100 70-100zm9 24c-40 0-46 34-46 75 0 40 6 74 45 74 42 0 51-32 51-76 0-42-9-74-50-73" id="ad"/><path fill="#3a414a" d="M114-163C36-179 61-72 57 0H25l-1-190h30c1 12-1 29 2 39 6-27 23-49 58-41v29" id="ae"/><path fill="#3a414a" d="M100-194c63 0 86 42 84 106H49c0 40 14 67 53 68 26 1 43-12 49-29l28 8c-11 28-37 45-77 45C44 4 14-33 15-96c1-61 26-98 85-98zm52 81c6-60-76-77-97-28-3 7-6 17-6 28h103" id="af"/><path fill="#3a414a" d="M117-194c89-4 53 116 60 194h-32v-121c0-31-8-49-39-48C34-167 62-67 57 0H25l-1-190h30c1 10-1 24 2 32 11-22 29-35 61-36" id="ag"/><path fill="#3a414a" d="M33-154v-36h34v36H33zM33 0v-36h34V0H33" id="ah"/><g id="e"><use transform="matrix(0.06790123456790123,0,0,0.06790123456790123,0,0)" xlink:href="#Z"/><use transform="matrix(0.06790123456790123,0,0,0.06790123456790123,12.222222222222221,0)" xlink:href="#aa"/><use transform="matrix(0.06790123456790123,0,0,0.06790123456790123,25.80246913580247,0)" xlink:href="#ab"/><use transform="matrix(0.06790123456790123,0,0,0.06790123456790123,31.166666666666664,0)" xlink:href="#ac"/><use transform="matrix(0.06790123456790123,0,0,0.06790123456790123,36.53086419753086,0)" xlink:href="#ad"/><use transform="matrix(0.06790123456790123,0,0,0.06790123456790123,50.11111111111111,0)" xlink:href="#ae"/><use transform="matrix(0.06790123456790123,0,0,0.06790123456790123,58.191358024691354,0)" xlink:href="#af"/><use transform="matrix(0.06790123456790123,0,0,0.06790123456790123,71.77160493827161,0)" xlink:href="#ag"/><use transform="matrix(0.06790123456790123,0,0,0.06790123456790123,85.35185185185185,0)" xlink:href="#ah"/></g><path fill="#3a414a" d="M-4 44V30h207v14H-4" id="ai"/><path fill="#3a414a" d="M76-208v77h127v40H76V0H24v-248h183v40H76" id="aj"/><path fill="#3a414a" d="M199 0l-22-63H83L61 0H9l90-248h61L250 0h-51zm-33-102l-36-108c-10 38-24 72-36 108h72" id="ak"/><path fill="#3a414a" d="M182-130c37 4 62 22 62 59C244 23 116-4 24 0v-248c84 5 203-23 205 63 0 31-19 50-47 55zM76-148c40-3 101 13 101-30 0-44-60-28-101-31v61zm0 110c48-3 116 14 116-37 0-48-69-32-116-35v72" id="al"/><path fill="#3a414a" d="M240-174c0 40-23 61-54 70L253 0h-59l-57-94H76V0H24v-248c93 4 217-23 216 74zM76-134c48-2 112 12 112-38 0-48-66-32-112-35v73" id="am"/><path fill="#3a414a" d="M67-125c0 53 21 87 73 88 37 1 54-22 65-47l45 17C233-25 199 4 140 4 58 4 20-42 15-125 8-235 124-281 211-232c18 10 29 29 36 50l-46 12c-8-25-30-41-62-41-52 0-71 34-72 86" id="an"/><g id="g"><use transform="matrix(0.06790123456790123,0,0,0.06790123456790123,0,0)" xlink:href="#T"/><use transform="matrix(0.06790123456790123,0,0,0.06790123456790123,16.296296296296294,0)" xlink:href="#U"/><use transform="matrix(0.06790123456790123,0,0,0.06790123456790123,23.086419753086417,0)" xlink:href="#V"/><use transform="matrix(0.06790123456790123,0,0,0.06790123456790123,37.95679012345679,0)" xlink:href="#W"/><use transform="matrix(0.06790123456790123,0,0,0.06790123456790123,54.253086419753075,0)" xlink:href="#X"/><use transform="matrix(0.06790123456790123,0,0,0.06790123456790123,67.83333333333331,0)" xlink:href="#ai"/><use transform="matrix(0.06790123456790123,0,0,0.06790123456790123,81.41358024691358,0)" xlink:href="#aj"/><use transform="matrix(0.06790123456790123,0,0,0.06790123456790123,94.92592592592591,0)" xlink:href="#ak"/><use transform="matrix(0.06790123456790123,0,0,0.06790123456790123,112.51234567901233,0)" xlink:href="#al"/><use transform="matrix(0.06790123456790123,0,0,0.06790123456790123,130.09876543209873,0)" xlink:href="#am"/><use transform="matrix(0.06790123456790123,0,0,0.06790123456790123,147.6851851851852,0)" xlink:href="#U"/><use transform="matrix(0.06790123456790123,0,0,0.06790123456790123,154.4753086419753,0)" xlink:href="#an"/><use transform="matrix(0.06790123456790123,0,0,0.06790123456790123,172.06172839506172,0)" xlink:href="#Y"/></g><path fill="#3a414a" d="M24-248c93 1 206-16 204 79-1 75-69 88-152 82V0H24v-248zm52 121c47 0 100 7 100-41 0-47-54-39-100-39v80" id="ao"/><path fill="#3a414a" d="M175 0L67-191c6 58 2 128 3 191H24v-248h59L193-55c-6-58-2-129-3-193h46V0h-61" id="ap"/><g id="j"><use transform="matrix(0.06790123456790123,0,0,0.06790123456790123,0,0)" xlink:href="#T"/><use transform="matrix(0.06790123456790123,0,0,0.06790123456790123,16.296296296296294,0)" xlink:href="#U"/><use transform="matrix(0.06790123456790123,0,0,0.06790123456790123,23.086419753086417,0)" xlink:href="#V"/><use transform="matrix(0.06790123456790123,0,0,0.06790123456790123,37.95679012345679,0)" xlink:href="#W"/><use transform="matrix(0.06790123456790123,0,0,0.06790123456790123,54.253086419753075,0)" xlink:href="#X"/><use transform="matrix(0.06790123456790123,0,0,0.06790123456790123,67.83333333333331,0)" xlink:href="#ai"/><use transform="matrix(0.06790123456790123,0,0,0.06790123456790123,81.41358024691358,0)" xlink:href="#T"/><use transform="matrix(0.06790123456790123,0,0,0.06790123456790123,97.70987654320986,0)" xlink:href="#ao"/><use transform="matrix(0.06790123456790123,0,0,0.06790123456790123,114.00617283950615,0)" xlink:href="#U"/><use transform="matrix(0.06790123456790123,0,0,0.06790123456790123,120.79629629629628,0)" xlink:href="#ap"/><use transform="matrix(0.06790123456790123,0,0,0.06790123456790123,138.38271604938268,0)" xlink:href="#W"/><use transform="matrix(0.06790123456790123,0,0,0.06790123456790123,154.67901234567898,0)" xlink:href="#T"/><use transform="matrix(0.06790123456790123,0,0,0.06790123456790123,170.9753086419753,0)" xlink:href="#Y"/></g><path fill="#3a414a" d="M100-194c62-1 85 37 85 99 1 63-27 99-86 99S16-35 15-95c0-66 28-99 85-99zM99-20c44 1 53-31 53-75 0-43-8-75-51-75s-53 32-53 75 10 74 51 75" id="aq"/><path fill="#3a414a" d="M135-143c-3-34-86-38-87 0 15 53 115 12 119 90S17 21 10-45l28-5c4 36 97 45 98 0-10-56-113-15-118-90-4-57 82-63 122-42 12 7 21 19 24 35" id="ar"/><path fill="#3a414a" d="M59-47c-2 24 18 29 38 22v24C64 9 27 4 27-40v-127H5v-23h24l9-43h21v43h35v23H59v120" id="as"/><g id="l"><use transform="matrix(0.06790123456790123,0,0,0.06790123456790123,0,0)" xlink:href="#aa"/><use transform="matrix(0.06790123456790123,0,0,0.06790123456790123,13.580246913580247,0)" xlink:href="#aq"/><use transform="matrix(0.06790123456790123,0,0,0.06790123456790123,27.160493827160494,0)" xlink:href="#ar"/><use transform="matrix(0.06790123456790123,0,0,0.06790123456790123,39.382716049382715,0)" xlink:href="#as"/><use transform="matrix(0.06790123456790123,0,0,0.06790123456790123,46.172839506172835,0)" xlink:href="#ar"/><use transform="matrix(0.06790123456790123,0,0,0.06790123456790123,58.395061728395056,0)" xlink:href="#ah"/></g><path fill="#3a414a" d="M27 0v-27h64v-190l-56 39v-29l58-41h29v221h61V0H27" id="at"/><path fill="#3a414a" d="M16-82v-28h88v28H16" id="au"/><path fill="#3a414a" d="M115-194c55 1 70 41 70 98S169 2 115 4C84 4 66-9 55-30l1 105H24l-1-265h31l2 30c10-21 28-34 59-34zm-8 174c40 0 45-34 45-75s-6-73-45-74c-42 0-51 32-51 76 0 43 10 73 51 73" id="av"/><g id="n"><use transform="matrix(0.06790123456790123,0,0,0.06790123456790123,0,0)" xlink:href="#ar"/><use transform="matrix(0.06790123456790123,0,0,0.06790123456790123,12.222222222222221,0)" xlink:href="#at"/><use transform="matrix(0.06790123456790123,0,0,0.06790123456790123,25.80246913580247,0)" xlink:href="#au"/><use transform="matrix(0.06790123456790123,0,0,0.06790123456790123,33.882716049382715,0)" xlink:href="#ar"/><use transform="matrix(0.06790123456790123,0,0,0.06790123456790123,46.10493827160494,0)" xlink:href="#av"/><use transform="matrix(0.06790123456790123,0,0,0.06790123456790123,59.68518518518518,0)" xlink:href="#ab"/><use transform="matrix(0.06790123456790123,0,0,0.06790123456790123,65.04938271604938,0)" xlink:href="#ag"/><use transform="matrix(0.06790123456790123,0,0,0.06790123456790123,78.62962962962962,0)" xlink:href="#af"/><use transform="matrix(0.06790123456790123,0,0,0.06790123456790123,92.20987654320987,0)" xlink:href="#at"/><use transform="matrix(0.06790123456790123,0,0,0.06790123456790123,105.79012345679013,0)" xlink:href="#ah"/></g><path fill="#3a414a" d="M101-251c82-7 93 87 43 132L82-64C71-53 59-42 53-27h129V0H18c2-99 128-94 128-182 0-28-16-43-45-43s-46 15-49 41l-32-3c6-41 34-60 81-64" id="aw"/><g id="o"><use transform="matrix(0.06790123456790123,0,0,0.06790123456790123,0,0)" xlink:href="#ar"/><use transform="matrix(0.06790123456790123,0,0,0.06790123456790123,12.222222222222221,0)" xlink:href="#at"/><use transform="matrix(0.06790123456790123,0,0,0.06790123456790123,25.80246913580247,0)" xlink:href="#au"/><use transform="matrix(0.06790123456790123,0,0,0.06790123456790123,33.882716049382715,0)" xlink:href="#ar"/><use transform="matrix(0.06790123456790123,0,0,0.06790123456790123,46.10493827160494,0)" xlink:href="#av"/><use transform="matrix(0.06790123456790123,0,0,0.06790123456790123,59.68518518518518,0)" xlink:href="#ab"/><use transform="matrix(0.06790123456790123,0,0,0.06790123456790123,65.04938271604938,0)" xlink:href="#ag"/><use transform="matrix(0.06790123456790123,0,0,0.06790123456790123,78.62962962962962,0)" xlink:href="#af"/><use transform="matrix(0.06790123456790123,0,0,0.06790123456790123,92.20987654320987,0)" xlink:href="#aw"/><use transform="matrix(0.06790123456790123,0,0,0.06790123456790123,105.79012345679013,0)" xlink:href="#ah"/></g><path fill="#3a414a" d="M24 0v-248h52v208h133V0H24" id="ax"/><g id="p"><use transform="matrix(0.06790123456790123,0,0,0.06790123456790123,0,0)" xlink:href="#T"/><use transform="matrix(0.06790123456790123,0,0,0.06790123456790123,16.296296296296294,0)" xlink:href="#U"/><use transform="matrix(0.06790123456790123,0,0,0.06790123456790123,23.086419753086417,0)" xlink:href="#V"/><use transform="matrix(0.06790123456790123,0,0,0.06790123456790123,37.95679012345679,0)" xlink:href="#W"/><use transform="matrix(0.06790123456790123,0,0,0.06790123456790123,54.253086419753075,0)" xlink:href="#X"/><use transform="matrix(0.06790123456790123,0,0,0.06790123456790123,67.83333333333331,0)" xlink:href="#ai"/><use transform="matrix(0.06790123456790123,0,0,0.06790123456790123,81.41358024691358,0)" xlink:href="#ax"/><use transform="matrix(0.06790123456790123,0,0,0.06790123456790123,96.28395061728394,0)" xlink:href="#W"/><use transform="matrix(0.06790123456790123,0,0,0.06790123456790123,112.58024691358023,0)" xlink:href="#ak"/><use transform="matrix(0.06790123456790123,0,0,0.06790123456790123,130.16666666666663,0)" xlink:href="#aj"/><use transform="matrix(0.06790123456790123,0,0,0.06790123456790123,145.037037037037,0)" xlink:href="#T"/><use transform="matrix(0.06790123456790123,0,0,0.06790123456790123,161.33333333333331,0)" xlink:href="#Y"/></g><path fill="#3a414a" d="M141-36C126-15 110 5 73 4 37 3 15-17 15-53c-1-64 63-63 125-63 3-35-9-54-41-54-24 1-41 7-42 31l-33-3c5-37 33-52 76-52 45 0 72 20 72 64v82c-1 20 7 32 28 27v20c-31 9-61-2-59-35zM48-53c0 20 12 33 32 33 41-3 63-29 60-74-43 2-92-5-92 41" id="ay"/><path fill="#3a414a" d="M101-234c-31-9-42 10-38 44h38v23H63V0H32v-167H5v-23h27c-7-52 17-82 69-68v24" id="az"/><g id="q"><use transform="matrix(0.06790123456790123,0,0,0.06790123456790123,0,0)" xlink:href="#ar"/><use transform="matrix(0.06790123456790123,0,0,0.06790123456790123,12.222222222222221,0)" xlink:href="#at"/><use transform="matrix(0.06790123456790123,0,0,0.06790123456790123,25.80246913580247,0)" xlink:href="#au"/><use transform="matrix(0.06790123456790123,0,0,0.06790123456790123,33.882716049382715,0)" xlink:href="#ac"/><use transform="matrix(0.06790123456790123,0,0,0.06790123456790123,39.24691358024691,0)" xlink:href="#af"/><use transform="matrix(0.06790123456790123,0,0,0.06790123456790123,52.82716049382716,0)" xlink:href="#ay"/><use transform="matrix(0.06790123456790123,0,0,0.06790123456790123,66.4074074074074,0)" xlink:href="#az"/><use transform="matrix(0.06790123456790123,0,0,0.06790123456790123,73.19753086419753,0)" xlink:href="#at"/><use transform="matrix(0.06790123456790123,0,0,0.06790123456790123,86.77777777777777,0)" xlink:href="#ah"/></g><g id="r"><use transform="matrix(0.06790123456790123,0,0,0.06790123456790123,0,0)" xlink:href="#ar"/><use transform="matrix(0.06790123456790123,0,0,0.06790123456790123,12.222222222222221,0)" xlink:href="#at"/><use transform="matrix(0.06790123456790123,0,0,0.06790123456790123,25.80246913580247,0)" xlink:href="#au"/><use transform="matrix(0.06790123456790123,0,0,0.06790123456790123,33.882716049382715,0)" xlink:href="#ac"/><use transform="matrix(0.06790123456790123,0,0,0.06790123456790123,39.24691358024691,0)" xlink:href="#af"/><use transform="matrix(0.06790123456790123,0,0,0.06790123456790123,52.82716049382716,0)" xlink:href="#ay"/><use transform="matrix(0.06790123456790123,0,0,0.06790123456790123,66.4074074074074,0)" xlink:href="#az"/><use transform="matrix(0.06790123456790123,0,0,0.06790123456790123,73.19753086419753,0)" xlink:href="#aw"/><use transform="matrix(0.06790123456790123,0,0,0.06790123456790123,86.77777777777777,0)" xlink:href="#ah"/></g><path fill="#3a414a" d="M126-127c33 6 58 20 58 59 0 88-139 92-164 29-3-8-5-16-6-25l32-3c6 27 21 44 54 44 32 0 52-15 52-46 0-38-36-46-79-43v-28c39 1 72-4 72-42 0-27-17-43-46-43-28 0-47 15-49 41l-32-3c6-42 35-63 81-64 48-1 79 21 79 65 0 36-21 52-52 59" id="aA"/><g id="s"><use transform="matrix(0.06790123456790123,0,0,0.06790123456790123,0,0)" xlink:href="#ar"/><use transform="matrix(0.06790123456790123,0,0,0.06790123456790123,12.222222222222221,0)" xlink:href="#at"/><use transform="matrix(0.06790123456790123,0,0,0.06790123456790123,25.80246913580247,0)" xlink:href="#au"/><use transform="matrix(0.06790123456790123,0,0,0.06790123456790123,33.882716049382715,0)" xlink:href="#ac"/><use transform="matrix(0.06790123456790123,0,0,0.06790123456790123,39.24691358024691,0)" xlink:href="#af"/><use transform="matrix(0.06790123456790123,0,0,0.06790123456790123,52.82716049382716,0)" xlink:href="#ay"/><use transform="matrix(0.06790123456790123,0,0,0.06790123456790123,66.4074074074074,0)" xlink:href="#az"/><use transform="matrix(0.06790123456790123,0,0,0.06790123456790123,73.19753086419753,0)" xlink:href="#aA"/><use transform="matrix(0.06790123456790123,0,0,0.06790123456790123,86.77777777777777,0)" xlink:href="#ah"/></g><path fill="#3a414a" d="M155-56V0h-30v-56H8v-25l114-167h33v167h35v25h-35zm-30-156c-27 46-58 90-88 131h88v-131" id="aB"/><g id="t"><use transform="matrix(0.06790123456790123,0,0,0.06790123456790123,0,0)" xlink:href="#ar"/><use transform="matrix(0.06790123456790123,0,0,0.06790123456790123,12.222222222222221,0)" xlink:href="#at"/><use transform="matrix(0.06790123456790123,0,0,0.06790123456790123,25.80246913580247,0)" xlink:href="#au"/><use transform="matrix(0.06790123456790123,0,0,0.06790123456790123,33.882716049382715,0)" xlink:href="#ac"/><use transform="matrix(0.06790123456790123,0,0,0.06790123456790123,39.24691358024691,0)" xlink:href="#af"/><use transform="matrix(0.06790123456790123,0,0,0.06790123456790123,52.82716049382716,0)" xlink:href="#ay"/><use transform="matrix(0.06790123456790123,0,0,0.06790123456790123,66.4074074074074,0)" xlink:href="#az"/><use transform="matrix(0.06790123456790123,0,0,0.06790123456790123,73.19753086419753,0)" xlink:href="#aB"/><use transform="matrix(0.06790123456790123,0,0,0.06790123456790123,86.77777777777777,0)" xlink:href="#ah"/></g><path fill="#fff" d="M80-702c6-234 206-338 457-298 93 15 166 59 220 115-26 37-46 85-79 115-8 4-17 7-28 7-73 0-113-61-203-61-94 0-160 79-107 152 93 83 270 88 356 179 39 42 70 95 69 176C761-63 553 47 286 6 191-9 109-52 51-106c29-40 47-92 85-123 77-33 115 38 178 55 22 6 48 12 80 12 81 0 133-35 133-110 0-69-60-91-116-111C252-440 75-483 80-702" id="aC"/><path fill="#fff" d="M236-180h257c2-279-3-565 3-840L323-871c-27 30-91 18-110-9l-76-104 399-346h198v1150h227V0H236v-180" id="aD"/><path fill="#fff" d="M61-690h505v212H61v-212" id="aE"/><path fill="#fff" d="M379-1437V0H125v-1437h254" id="aF"/><path fill="#fff" d="M960-149C871-45 736 15 551 15 231 15 63-191 63-518c0-229 113-378 277-452 59-26 125-39 199-39 278 0 430 170 430 452 0 55-4 97-59 97H316c14 166 83 276 257 279 98 1 159-38 221-71 33-18 71-20 93 9zM741-612c-4-130-65-216-197-216-140 0-203 89-223 216h420" id="aG"/><path fill="#fff" d="M534-1012c240 0 371 147 371 387V0c-80-7-186 24-201-53l-22-66C598-47 516 18 362 15 183 12 73-75 73-255c0-177 142-239 303-283 75-20 169-31 281-34 9-142-26-239-155-239-97 0-149 37-209 70-49 27-108 2-128-33l-46-80c103-96 231-158 415-158zM316-268c-2 80 48 110 125 110 107 0 156-41 216-100v-160c-111 5-199 15-269 48-43 21-70 49-72 102" id="aH"/><path fill="#fff" d="M562-1233c-141 0-169 100-160 247h230v180H410V0H156v-806c-55-15-135-9-136-77v-103h136c-14-277 106-437 363-437 48 0 83 7 122 18l-6 127c-1 39-36 45-73 45" id="aI"/><path fill="#fff" d="M113-955c38-239 181-388 448-388 186 0 310 81 369 209 18 42 27 87 27 134 1 168-77 256-203 297 151 51 227 154 227 307C981-126 800 8 532 14 260 20 143-131 76-338c63-25 186-102 236-14 46 82 93 164 218 164 130 0 203-76 210-200 9-175-112-206-288-206v-171c158-2 269-37 269-193 0-117-60-182-173-183-99-1-165 67-190 142-19 57-44 79-118 66" id="aJ"/><g id="w"><use transform="matrix(0.013020833333333334,0,0,0.013020833333333334,0,0)" xlink:href="#aC"/><use transform="matrix(0.013020833333333334,0,0,0.013020833333333334,10.638020833333334,0)" xlink:href="#aD"/><use transform="matrix(0.013020833333333334,0,0,0.013020833333333334,24.153645833333336,0)" xlink:href="#aE"/><use transform="matrix(0.013020833333333334,0,0,0.013020833333333334,32.317708333333336,0)" xlink:href="#aF"/><use transform="matrix(0.013020833333333334,0,0,0.013020833333333334,38.8671875,0)" xlink:href="#aG"/><use transform="matrix(0.013020833333333334,0,0,0.013020833333333334,52.29166666666667,0)" xlink:href="#aH"/><use transform="matrix(0.013020833333333334,0,0,0.013020833333333334,65.3125,0)" xlink:href="#aI"/><use transform="matrix(0.013020833333333334,0,0,0.013020833333333334,73.75,0)" xlink:href="#aJ"/></g><filter id="v" filterUnits="objectBoundingBox" x="-.06" y="-.04" width="1.12" height="1.21"><feOffset result="offOut" in="SourceAlpha" dy="6"/><feGaussianBlur result="blurOut" in="offOut" stdDeviation="5"/><feColorMatrix result="colorOut" in="blurOut" values="0 0 0 0 0 0 0 0 0 0 0 0 0 0 0 0 0 0 0.5019607843137255 0"/><feBlend in="SourceGraphic" in2="colorOut"/></filter><path fill="#fff" d="M1007-505c-9 70 29 185-49 186H854V0H644v-319H105c-83-4-69-108-90-173l609-837h230v824h153zm-363 0c3-182-8-376 8-546L269-505h375" id="aK"/><g id="x"><use transform="matrix(0.013020833333333334,0,0,0.013020833333333334,0,0)" xlink:href="#aC"/><use transform="matrix(0.013020833333333334,0,0,0.013020833333333334,10.638020833333334,0)" xlink:href="#aD"/><use transform="matrix(0.013020833333333334,0,0,0.013020833333333334,24.153645833333336,0)" xlink:href="#aE"/><use transform="matrix(0.013020833333333334,0,0,0.013020833333333334,32.317708333333336,0)" xlink:href="#aF"/><use transform="matrix(0.013020833333333334,0,0,0.013020833333333334,38.8671875,0)" xlink:href="#aG"/><use transform="matrix(0.013020833333333334,0,0,0.013020833333333334,52.29166666666667,0)" xlink:href="#aH"/><use transform="matrix(0.013020833333333334,0,0,0.013020833333333334,65.3125,0)" xlink:href="#aI"/><use transform="matrix(0.013020833333333334,0,0,0.013020833333333334,73.75,0)" xlink:href="#aK"/></g><g id="y"><use transform="matrix(0.013020833333333334,0,0,0.013020833333333334,0,0)" xlink:href="#aC"/><use transform="matrix(0.013020833333333334,0,0,0.013020833333333334,10.638020833333334,0)" xlink:href="#aD"/><use transform="matrix(0.013020833333333334,0,0,0.013020833333333334,24.153645833333336,0)" xlink:href="#aE"/><use transform="matrix(0.013020833333333334,0,0,0.013020833333333334,32.317708333333336,0)" xlink:href="#aF"/><use transform="matrix(0.013020833333333334,0,0,0.013020833333333334,38.8671875,0)" xlink:href="#aG"/><use transform="matrix(0.013020833333333334,0,0,0.013020833333333334,52.29166666666667,0)" xlink:href="#aH"/><use transform="matrix(0.013020833333333334,0,0,0.013020833333333334,65.3125,0)" xlink:href="#aI"/><use transform="matrix(0.013020833333333334,0,0,0.013020833333333334,73.75,0)" xlink:href="#aD"/></g><path fill="#fff" d="M89-955c40-238 181-388 449-388 250 0 409 134 409 381 0 232-139 347-258 472L407-195c126-46 310-24 475-29 49-1 86 32 85 80V0H69c-2-76 0-138 43-180 161-160 326-321 472-494 63-74 110-153 115-281 6-143-107-217-242-175-61 19-100 69-121 131-19 56-46 79-119 66" id="aL"/><g id="z"><use transform="matrix(0.013020833333333334,0,0,0.013020833333333334,0,0)" xlink:href="#aC"/><use transform="matrix(0.013020833333333334,0,0,0.013020833333333334,10.638020833333334,0)" xlink:href="#aD"/><use transform="matrix(0.013020833333333334,0,0,0.013020833333333334,24.153645833333336,0)" xlink:href="#aE"/><use transform="matrix(0.013020833333333334,0,0,0.013020833333333334,32.317708333333336,0)" xlink:href="#aF"/><use transform="matrix(0.013020833333333334,0,0,0.013020833333333334,38.8671875,0)" xlink:href="#aG"/><use transform="matrix(0.013020833333333334,0,0,0.013020833333333334,52.29166666666667,0)" xlink:href="#aH"/><use transform="matrix(0.013020833333333334,0,0,0.013020833333333334,65.3125,0)" xlink:href="#aI"/><use transform="matrix(0.013020833333333334,0,0,0.013020833333333334,73.75,0)" xlink:href="#aL"/></g><path fill="#fff" d="M615 15c-112 0-178-37-238-91v398H123V-993c65 5 149-11 197 11 31 24 28 81 42 121 74-81 161-151 314-151 265 0 360 229 360 508 0 232-93 399-248 480-52 26-109 39-173 39zm159-519c0-165-29-307-185-307-108 0-158 47-212 111v440c43 53 94 83 178 83 171 0 219-146 219-327" id="aM"/><path fill="#fff" d="M379-993V0H125v-993h254zm-132-444c97 0 163 62 163 159 0 96-66 158-163 158-94 0-157-63-157-158s62-159 157-159" id="aN"/><path fill="#fff" d="M582-811c-92 1-152 44-204 95V0H124v-993c65 5 150-14 196 11 30 17 27 71 39 107 74-72 158-134 301-134 225 0 332 151 332 377V0H738v-632c0-109-49-180-156-179" id="aO"/><g id="B"><use transform="matrix(0.013020833333333334,0,0,0.013020833333333334,0,0)" xlink:href="#aC"/><use transform="matrix(0.013020833333333334,0,0,0.013020833333333334,10.638020833333334,0)" xlink:href="#aD"/><use transform="matrix(0.013020833333333334,0,0,0.013020833333333334,24.153645833333336,0)" xlink:href="#aE"/><use transform="matrix(0.013020833333333334,0,0,0.013020833333333334,32.317708333333336,0)" xlink:href="#aC"/><use transform="matrix(0.013020833333333334,0,0,0.013020833333333334,42.95572916666667,0)" xlink:href="#aM"/><use transform="matrix(0.013020833333333334,0,0,0.013020833333333334,57.265625,0)" xlink:href="#aN"/><use transform="matrix(0.013020833333333334,0,0,0.013020833333333334,63.81510416666667,0)" xlink:href="#aO"/><use transform="matrix(0.013020833333333334,0,0,0.013020833333333334,78.125,0)" xlink:href="#aG"/><use transform="matrix(0.013020833333333334,0,0,0.013020833333333334,91.54947916666667,0)" xlink:href="#aD"/></g><filter id="A" filterUnits="objectBoundingBox" x="-.04" y="-.04" width="1.08" height="1.21"><feOffset result="offOut" in="SourceAlpha" dy="6"/><feGaussianBlur result="blurOut" in="offOut" stdDeviation="5"/><feColorMatrix result="colorOut" in="blurOut" values="0 0 0 0 0 0 0 0 0 0 0 0 0 0 0 0 0 0 0.5019607843137255 0"/><feBlend in="SourceGraphic" in2="colorOut"/></filter><g id="D"><use transform="matrix(0.013020833333333334,0,0,0.013020833333333334,0,0)" xlink:href="#aC"/><use transform="matrix(0.013020833333333334,0,0,0.013020833333333334,10.638020833333334,0)" xlink:href="#aD"/><use transform="matrix(0.013020833333333334,0,0,0.013020833333333334,24.153645833333336,0)" xlink:href="#aE"/><use transform="matrix(0.013020833333333334,0,0,0.013020833333333334,32.317708333333336,0)" xlink:href="#aC"/><use transform="matrix(0.013020833333333334,0,0,0.013020833333333334,42.95572916666667,0)" xlink:href="#aM"/><use transform="matrix(0.013020833333333334,0,0,0.013020833333333334,57.265625,0)" xlink:href="#aN"/><use transform="matrix(0.013020833333333334,0,0,0.013020833333333334,63.81510416666667,0)" xlink:href="#aO"/><use transform="matrix(0.013020833333333334,0,0,0.013020833333333334,78.125,0)" xlink:href="#aG"/><use transform="matrix(0.013020833333333334,0,0,0.013020833333333334,91.54947916666667,0)" xlink:href="#aL"/></g><filter id="C" filterUnits="objectBoundingBox" x="-.04" y="-.04" width="1.08" height="1.21"><feOffset result="offOut" in="SourceAlpha" dy="6"/><feGaussianBlur result="blurOut" in="offOut" stdDeviation="5"/><feColorMatrix result="colorOut" in="blurOut" values="0 0 0 0 0 0 0 0 0 0 0 0 0 0 0 0 0 0 0.5019607843137255 0"/><feBlend in="SourceGraphic" in2="colorOut"/></filter><path d="M169-182c-1-43-94-46-97-3 18 66 151 10 154 114 3 95-165 93-204 36-6-8-10-19-12-30l50-8c3 46 112 56 116 5-17-69-150-10-154-114-4-87 153-88 188-35 5 8 8 18 10 28" id="aP"/><path d="M24 0v-248h52V0H24" id="aQ"/><path d="M136-208V0H84v-208H4v-40h212v40h-80" id="aR"/><path d="M24 0v-248h195v40H76v63h132v40H76v65h150V0H24" id="aS"/><path d="M23 0v-37h61v-169l-59 37v-38l62-41h46v211h57V0H23" id="aT"/><g id="E"><use transform="matrix(0.06790123456790116,0,0,0.06790123456790116,0,0)" xlink:href="#aP"/><use transform="matrix(0.06790123456790116,0,0,0.06790123456790116,16.29629629629628,0)" xlink:href="#aQ"/><use transform="matrix(0.06790123456790116,0,0,0.06790123456790116,23.086419753086396,0)" xlink:href="#aR"/><use transform="matrix(0.06790123456790116,0,0,0.06790123456790116,37.95679012345675,0)" xlink:href="#aS"/><use transform="matrix(0.06790123456790116,0,0,0.06790123456790116,54.25308641975304,0)" xlink:href="#aT"/></g><path d="M-4 44V30h207v14H-4" id="aU"/><path d="M76-208v77h127v40H76V0H24v-248h183v40H76" id="aV"/><path d="M199 0l-22-63H83L61 0H9l90-248h61L250 0h-51zm-33-102l-36-108c-10 38-24 72-36 108h72" id="aW"/><path d="M182-130c37 4 62 22 62 59C244 23 116-4 24 0v-248c84 5 203-23 205 63 0 31-19 50-47 55zM76-148c40-3 101 13 101-30 0-44-60-28-101-31v61zm0 110c48-3 116 14 116-37 0-48-69-32-116-35v72" id="aX"/><path d="M240-174c0 40-23 61-54 70L253 0h-59l-57-94H76V0H24v-248c93 4 217-23 216 74zM76-134c48-2 112 12 112-38 0-48-66-32-112-35v73" id="aY"/><path d="M67-125c0 53 21 87 73 88 37 1 54-22 65-47l45 17C233-25 199 4 140 4 58 4 20-42 15-125 8-235 124-281 211-232c18 10 29 29 36 50l-46 12c-8-25-30-41-62-41-52 0-71 34-72 86" id="aZ"/><g id="F"><use transform="matrix(0.06790123456790116,0,0,0.06790123456790116,0,0)" xlink:href="#aP"/><use transform="matrix(0.06790123456790116,0,0,0.06790123456790116,16.29629629629628,0)" xlink:href="#aQ"/><use transform="matrix(0.06790123456790116,0,0,0.06790123456790116,23.086419753086396,0)" xlink:href="#aR"/><use transform="matrix(0.06790123456790116,0,0,0.06790123456790116,37.95679012345675,0)" xlink:href="#aS"/><use transform="matrix(0.06790123456790116,0,0,0.06790123456790116,54.25308641975304,0)" xlink:href="#aT"/><use transform="matrix(0.06790123456790116,0,0,0.06790123456790116,67.83333333333326,0)" xlink:href="#aU"/><use transform="matrix(0.06790123456790116,0,0,0.06790123456790116,81.41358024691348,0)" xlink:href="#aV"/><use transform="matrix(0.06790123456790116,0,0,0.06790123456790116,94.92592592592581,0)" xlink:href="#aW"/><use transform="matrix(0.06790123456790116,0,0,0.06790123456790116,112.51234567901221,0)" xlink:href="#aX"/><use transform="matrix(0.06790123456790116,0,0,0.06790123456790116,130.09876543209862,0)" xlink:href="#aY"/><use transform="matrix(0.06790123456790116,0,0,0.06790123456790116,147.68518518518502,0)" xlink:href="#aQ"/><use transform="matrix(0.06790123456790116,0,0,0.06790123456790116,154.47530864197515,0)" xlink:href="#aZ"/></g><path d="M24-248c93 1 206-16 204 79-1 75-69 88-152 82V0H24v-248zm52 121c47 0 100 7 100-41 0-47-54-39-100-39v80" id="ba"/><path d="M175 0L67-191c6 58 2 128 3 191H24v-248h59L193-55c-6-58-2-129-3-193h46V0h-61" id="bb"/><g id="G"><use transform="matrix(0.06790123456790116,0,0,0.06790123456790116,0,0)" xlink:href="#aP"/><use transform="matrix(0.06790123456790116,0,0,0.06790123456790116,16.29629629629628,0)" xlink:href="#aQ"/><use transform="matrix(0.06790123456790116,0,0,0.06790123456790116,23.086419753086396,0)" xlink:href="#aR"/><use transform="matrix(0.06790123456790116,0,0,0.06790123456790116,37.95679012345675,0)" xlink:href="#aS"/><use transform="matrix(0.06790123456790116,0,0,0.06790123456790116,54.25308641975304,0)" xlink:href="#aT"/><use transform="matrix(0.06790123456790116,0,0,0.06790123456790116,67.83333333333326,0)" xlink:href="#aU"/><use transform="matrix(0.06790123456790116,0,0,0.06790123456790116,81.41358024691348,0)" xlink:href="#aP"/><use transform="matrix(0.06790123456790116,0,0,0.06790123456790116,97.70987654320976,0)" xlink:href="#ba"/><use transform="matrix(0.06790123456790116,0,0,0.06790123456790116,114.00617283950604,0)" xlink:href="#aQ"/><use transform="matrix(0.06790123456790116,0,0,0.06790123456790116,120.79629629629615,0)" xlink:href="#bb"/><use transform="matrix(0.06790123456790116,0,0,0.06790123456790116,138.38271604938254,0)" xlink:href="#aS"/><use transform="matrix(0.06790123456790116,0,0,0.06790123456790116,154.6790123456788,0)" xlink:href="#aP"/></g><path d="M24 0v-248h52v208h133V0H24" id="bc"/><g id="H"><use transform="matrix(0.06790123456790116,0,0,0.06790123456790116,0,0)" xlink:href="#aP"/><use transform="matrix(0.06790123456790116,0,0,0.06790123456790116,16.29629629629628,0)" xlink:href="#aQ"/><use transform="matrix(0.06790123456790116,0,0,0.06790123456790116,23.086419753086396,0)" xlink:href="#aR"/><use transform="matrix(0.06790123456790116,0,0,0.06790123456790116,37.95679012345675,0)" xlink:href="#aS"/><use transform="matrix(0.06790123456790116,0,0,0.06790123456790116,54.25308641975304,0)" xlink:href="#aT"/><use transform="matrix(0.06790123456790116,0,0,0.06790123456790116,67.83333333333326,0)" xlink:href="#aU"/><use transform="matrix(0.06790123456790116,0,0,0.06790123456790116,81.41358024691348,0)" xlink:href="#bc"/><use transform="matrix(0.06790123456790116,0,0,0.06790123456790116,96.28395061728384,0)" xlink:href="#aS"/><use transform="matrix(0.06790123456790116,0,0,0.06790123456790116,112.58024691358011,0)" xlink:href="#aW"/><use transform="matrix(0.06790123456790116,0,0,0.06790123456790116,130.16666666666652,0)" xlink:href="#aV"/><use transform="matrix(0.06790123456790116,0,0,0.06790123456790116,145.03703703703687,0)" xlink:href="#aP"/></g></defs></g></svg>