<svg xmlns="http://www.w3.org/2000/svg" xmlns:xlink="http://www.w3.org/1999/xlink" xmlns:lucid="lucid" width="2730" height="1229"><g transform="translate(-942 -179)" lucid:page-tab-id="Fa8EUwjip8aF"><path d="M500 0h3500v3000H500z" fill="#fff"/><path d="M987.64 574.83a20 20 0 0 1 20-20h1170.6a20 20 0 0 1 20 20v598.2a20 20 0 0 1-20 20h-1170.6a20 20 0 0 1-20-20z" stroke="#979ea8" stroke-width="2" fill="#f2f3f5"/><path d="M1263.4 621.03a19 19 0 0 1 19-19h618.63a19 19 0 0 1 19 19v122a19 19 0 0 1-19 19H1282.4a19 19 0 0 1-19-19zM1668.5 1001.83a19 19 0 0 1 19-19h422a19 19 0 0 1 19 19v122a19 19 0 0 1-19 19h-422a19 19 0 0 1-19-19zM1054.87 1001.83a19 19 0 0 1 19-19h422a19 19 0 0 1 19 19v122a19 19 0 0 1-19 19h-422a19 19 0 0 1-19-19z" stroke="#ced4db" stroke-width="3" fill="#ced4db"/><g filter="url(#a)"><path d="M1690.4 1017.05a.5.5 0 0 1 .5-.5h168.63a.5.5 0 0 1 .5.5v93.4a.5.5 0 0 1-.5.5H1690.9a.5.5 0 0 1-.5-.5z" fill="#fff" fill-opacity="0"/><path d="M1690.9 1016.55a.5.5 0 0 0-.5.5v93.4a.5.5 0 0 0 .5.5h168.63a.5.5 0 0 0 .5-.5v-93.4a.5.5 0 0 0-.5-.5z" stroke="#315796" stroke-width="3" fill="#315796"/><use xlink:href="#b" transform="matrix(1,0,0,1,1700.2320584085057,1027.5926777142167) translate(31.3671875 43.166666666666664)"/></g><g filter="url(#a)"><path d="M1930.4 1017.05a.5.5 0 0 1 .5-.5h168.63a.5.5 0 0 1 .5.5v93.4a.5.5 0 0 1-.5.5H1930.9a.5.5 0 0 1-.5-.5z" fill="#fff" fill-opacity="0"/><path d="M1930.9 1016.55a.5.5 0 0 0-.5.5v93.4a.5.5 0 0 0 .5.5h168.63a.5.5 0 0 0 .5-.5v-93.4a.5.5 0 0 0-.5-.5z" stroke="#315796" stroke-width="3" fill="#315796"/><use xlink:href="#c" transform="matrix(1,0,0,1,1940.2320584085062,1027.5926777142167) translate(31.3671875 43.166666666666664)"/></g><g filter="url(#a)"><path d="M1082.13 1017.05a.5.5 0 0 1 .5-.5h168.64a.5.5 0 0 1 .5.5v93.4a.5.5 0 0 1-.5.5h-168.64a.5.5 0 0 1-.5-.5z" fill="#fff" fill-opacity="0"/><path d="M1082.63 1016.55a.5.5 0 0 0-.5.5v93.4a.5.5 0 0 0 .5.5h168.64a.5.5 0 0 0 .5-.5v-93.4a.5.5 0 0 0-.5-.5z" stroke="#315796" stroke-width="3" fill="#315796"/><use xlink:href="#d" transform="matrix(1,0,0,1,1091.969437070754,1027.5926777142167) translate(31.3671875 43.166666666666664)"/></g><g filter="url(#a)"><path d="M1322.13 1017.05a.5.5 0 0 1 .5-.5h168.64a.5.5 0 0 1 .5.5v93.4a.5.5 0 0 1-.5.5h-168.64a.5.5 0 0 1-.5-.5z" fill="#fff" fill-opacity="0"/><path d="M1322.63 1016.55a.5.5 0 0 0-.5.5v93.4a.5.5 0 0 0 .5.5h168.64a.5.5 0 0 0 .5-.5v-93.4a.5.5 0 0 0-.5-.5z" stroke="#315796" stroke-width="3" fill="#315796"/><use xlink:href="#e" transform="matrix(1,0,0,1,1331.969437070754,1027.5926777142167) translate(31.3671875 43.166666666666664)"/></g><path d="M1234.13 1039.76a.5.5 0 0 1 .5-.5h37a.5.5 0 0 1 .5.5v22.96a.5.5 0 0 1-.5.5h-37a.5.5 0 0 1-.5-.5z" fill="#fff" fill-opacity="0"/><path d="M1234.63 1040.22a.5.5 0 0 0-.5.5v21.03a.5.5 0 0 0 .5.5h37a.5.5 0 0 0 .5-.5v-21.03a.5.5 0 0 0-.5-.5z" stroke="#5e5e5e" fill="#fff"/><use xlink:href="#f" transform="matrix(1,0,0,1,1248.531806289668,1039.2546928625961) translate(0.49479166666666696 16.444444444444443)"/><path d="M1234.13 1064.8a.5.5 0 0 1 .5-.5h37a.5.5 0 0 1 .5.5v22.96a.5.5 0 0 1-.5.5h-37a.5.5 0 0 1-.5-.5z" fill="#fff" fill-opacity="0"/><path d="M1234.63 1065.26a.5.5 0 0 0-.5.5v21.03a.5.5 0 0 0 .5.5h37a.5.5 0 0 0 .5-.5v-21.04a.5.5 0 0 0-.5-.5z" stroke="#5e5e5e" fill="#fff"/><use xlink:href="#g" transform="matrix(1,0,0,1,1248.531806289668,1064.2859428625961) translate(0.49479166666666696 16.444444444444443)"/><path d="M1302.13 1039.76a.5.5 0 0 1 .5-.5h37a.5.5 0 0 1 .5.5v22.96a.5.5 0 0 1-.5.5h-37a.5.5 0 0 1-.5-.5z" fill="#fff" fill-opacity="0"/><path d="M1302.63 1040.22a.5.5 0 0 0-.5.5v21.03a.5.5 0 0 0 .5.5h37a.5.5 0 0 0 .5-.5v-21.03a.5.5 0 0 0-.5-.5z" stroke="#5e5e5e" fill="#fff"/><use xlink:href="#f" transform="matrix(1,0,0,1,1316.531806289668,1039.2546928625961) translate(0.49479166666666696 16.444444444444443)"/><path d="M1302.13 1064.8a.5.5 0 0 1 .5-.5h37a.5.5 0 0 1 .5.5v22.96a.5.5 0 0 1-.5.5h-37a.5.5 0 0 1-.5-.5z" fill="#fff" fill-opacity="0"/><path d="M1302.63 1065.26a.5.5 0 0 0-.5.5v21.03a.5.5 0 0 0 .5.5h37a.5.5 0 0 0 .5-.5v-21.04a.5.5 0 0 0-.5-.5z" stroke="#5e5e5e" fill="#fff"/><use xlink:href="#g" transform="matrix(1,0,0,1,1316.531806289668,1064.2859428625961) translate(0.49479166666666696 16.444444444444443)"/><path d="M1274.13 1051.24h26" stroke="#5e5e5e" stroke-width="3" fill="none"/><path d="M1274.17 1052.74h-1.54v-3h1.54zM1301.63 1052.74h-1.54v-3h1.53z" stroke="#5e5e5e" stroke-width=".05" fill="#5e5e5e"/><path d="M1274.13 1076.27h26" stroke="#5e5e5e" stroke-width="3" fill="none"/><path d="M1274.17 1077.77h-1.54v-3h1.54zM1301.63 1077.77h-1.54v-3h1.53z" stroke="#5e5e5e" stroke-width=".05" fill="#5e5e5e"/><path d="M1842.03 1039.76a.5.5 0 0 1 .5-.5h37a.5.5 0 0 1 .5.5v22.96a.5.5 0 0 1-.5.5h-37a.5.5 0 0 1-.5-.5z" fill="#fff" fill-opacity="0"/><path d="M1842.53 1040.22a.5.5 0 0 0-.5.5v21.03a.5.5 0 0 0 .5.5h37a.5.5 0 0 0 .5-.5v-21.03a.5.5 0 0 0-.5-.5z" stroke="#5e5e5e" fill="#fff"/><use xlink:href="#f" transform="matrix(1,0,0,1,1856.4345227260596,1039.2546928625961) translate(0.49479166666666696 16.444444444444443)"/><path d="M1842.03 1064.8a.5.5 0 0 1 .5-.5h37a.5.5 0 0 1 .5.5v22.96a.5.5 0 0 1-.5.5h-37a.5.5 0 0 1-.5-.5z" fill="#fff" fill-opacity="0"/><path d="M1842.53 1065.26a.5.5 0 0 0-.5.5v21.03a.5.5 0 0 0 .5.5h37a.5.5 0 0 0 .5-.5v-21.04a.5.5 0 0 0-.5-.5z" stroke="#5e5e5e" fill="#fff"/><use xlink:href="#g" transform="matrix(1,0,0,1,1856.4345227260596,1064.2859428625961) translate(0.49479166666666696 16.444444444444443)"/><path d="M1910.03 1039.76a.5.5 0 0 1 .5-.5h37a.5.5 0 0 1 .5.5v22.96a.5.5 0 0 1-.5.5h-37a.5.5 0 0 1-.5-.5z" fill="#fff" fill-opacity="0"/><path d="M1910.53 1040.22a.5.5 0 0 0-.5.5v21.03a.5.5 0 0 0 .5.5h37a.5.5 0 0 0 .5-.5v-21.03a.5.5 0 0 0-.5-.5z" stroke="#5e5e5e" fill="#fff"/><use xlink:href="#f" transform="matrix(1,0,0,1,1924.4345227260596,1039.2546928625961) translate(0.49479166666666696 16.444444444444443)"/><path d="M1910.03 1064.8a.5.5 0 0 1 .5-.5h37a.5.5 0 0 1 .5.5v22.96a.5.5 0 0 1-.5.5h-37a.5.5 0 0 1-.5-.5z" fill="#fff" fill-opacity="0"/><path d="M1910.53 1065.26a.5.5 0 0 0-.5.5v21.03a.5.5 0 0 0 .5.5h37a.5.5 0 0 0 .5-.5v-21.04a.5.5 0 0 0-.5-.5z" stroke="#5e5e5e" fill="#fff"/><use xlink:href="#g" transform="matrix(1,0,0,1,1924.4345227260596,1064.2859428625961) translate(0.49479166666666696 16.444444444444443)"/><path d="M1882.03 1051.24h26" stroke="#5e5e5e" stroke-width="3" fill="none"/><path d="M1882.07 1052.74h-1.54v-3h1.54zM1909.53 1052.74H1908v-3h1.53z" stroke="#5e5e5e" stroke-width=".05" fill="#5e5e5e"/><path d="M1882.03 1076.27h26" stroke="#5e5e5e" stroke-width="3" fill="none"/><path d="M1882.07 1077.77h-1.54v-3h1.54zM1909.53 1077.77H1908v-3h1.53z" stroke="#5e5e5e" stroke-width=".05" fill="#5e5e5e"/><g filter="url(#h)"><path d="M1286.28 634.33a.5.5 0 0 1 .5-.5H1538a.5.5 0 0 1 .5.5v93.4a.5.5 0 0 1-.5.5H1286.8a.5.5 0 0 1-.5-.5z" fill="#fff" fill-opacity="0"/><path d="M1286.78 633.83a.5.5 0 0 0-.5.5v93.4a.5.5 0 0 0 .5.5H1538a.5.5 0 0 0 .5-.5v-93.4a.5.5 0 0 0-.5-.5z" stroke="#315796" stroke-width="3" fill="#315796"/><use xlink:href="#i" transform="matrix(1,0,0,1,1300.9123736068984,644.8714644793537) translate(58.967447916666664 43.166666666666664)"/></g><g filter="url(#j)"><path d="M1648.87 634.33a.5.5 0 0 1 .5-.5h251.16a.5.5 0 0 1 .5.5v93.4a.5.5 0 0 1-.5.5h-251.16a.5.5 0 0 1-.5-.5z" fill="#fff" fill-opacity="0"/><path d="M1649.37 633.83a.5.5 0 0 0-.5.5v93.4a.5.5 0 0 0 .5.5h251.16a.5.5 0 0 0 .5-.5v-93.4a.5.5 0 0 0-.5-.5z" stroke="#315796" stroke-width="3" fill="#315796"/><use xlink:href="#k" transform="matrix(1,0,0,1,1663.4929770430751,644.8714644793537) translate(58.967447916666664 43.166666666666664)"/></g><path d="M1148 1003.13l206.56-263.16" stroke="#5e5e5e" stroke-width="3" fill="none"/><path d="M1149.2 1004.02l-.23.3h-3.8l1.67-2.15zM1355.72 740.93l-2.36-1.85.22-.3h3.82z" stroke="#5e5e5e" stroke-width=".05" fill="#5e5e5e"/><path d="M1187.65 1003.63l528.1-264.17" stroke="#5e5e5e" stroke-width="3" fill="none"/><path d="M1188.02 1004.3h-5.07l4.06-2.02zM1716.38 740.82l-1.02-2.03h5.08z" stroke="#5e5e5e" stroke-width=".05" fill="#5e5e5e"/><path d="M1387.3 1002.8l5.5-262.5" stroke="#5e5e5e" stroke-width="3" fill="none"/><path d="M1388.8 1002.8l-.03 1.5h-3l.03-1.56zM1394.3 740.36l-3-.06.04-1.5h3z" stroke="#5e5e5e" stroke-width=".05" fill="#5e5e5e"/><path d="M1428.8 1003.36l322.98-263.62" stroke="#5e5e5e" stroke-width="3" fill="none"/><path d="M1429.62 1004.3h-4.36l2.62-2.13zM1752.7 740.93l-1.74-2.14h4.36z" stroke="#5e5e5e" stroke-width=".05" fill="#5e5e5e"/><path d="M1757.52 1003.36l-326.15-263.62" stroke="#5e5e5e" stroke-width="3" fill="none"/><path d="M1761.07 1004.3h-4.36l1.73-2.13zM1430.45 740.93l-2.64-2.14h4.38z" stroke="#5e5e5e" stroke-width=".05" fill="#5e5e5e"/><path d="M1795.18 1002.8l-3.37-262.5" stroke="#5e5e5e" stroke-width="3" fill="none"/><path d="M1796.7 1004.3h-3l-.02-1.5 3-.05zM1793.3 740.3l-3 .05v-1.56h3z" stroke="#5e5e5e" stroke-width=".05" fill="#5e5e5e"/><path d="M1993.46 1003.63L1470.4 739.47" stroke="#5e5e5e" stroke-width="3" fill="none"/><path d="M1998.13 1004.3h-5.05l1.02-2.03zM1469.74 740.83l-4.02-2.04h5.05z" stroke="#5e5e5e" stroke-width=".05" fill="#5e5e5e"/><path d="M2033.6 1003.1L1834.53 740" stroke="#5e5e5e" stroke-width="3" fill="none"/><path d="M2036.38 1004.3h-3.77l-.23-.32 2.4-1.8zM1835.76 739.1l-2.4 1.82-1.6-2.13h3.75z" stroke="#5e5e5e" stroke-width=".05" fill="#5e5e5e"/><path d="M1516.5 652.33a.5.5 0 0 1 .5-.5h37a.5.5 0 0 1 .5.5v22.96a.5.5 0 0 1-.5.5h-37a.5.5 0 0 1-.5-.5z" fill="#fff" fill-opacity="0"/><path d="M1517 652.8a.5.5 0 0 0-.5.5v21.02a.5.5 0 0 0 .5.5h37a.5.5 0 0 0 .5-.5V653.3a.5.5 0 0 0-.5-.5z" stroke="#5e5e5e" fill="#fff"/><use xlink:href="#f" transform="matrix(1,0,0,1,1530.9141967920057,651.8245825671855) translate(0.49479166666666696 16.444444444444443)"/><path d="M1516.5 677.36a.5.5 0 0 1 .5-.5h37a.5.5 0 0 1 .5.5v22.97a.5.5 0 0 1-.5.5h-37a.5.5 0 0 1-.5-.5z" fill="#fff" fill-opacity="0"/><path d="M1517 677.83a.5.5 0 0 0-.5.5v21.02a.5.5 0 0 0 .5.5h37a.5.5 0 0 0 .5-.5v-21.02a.5.5 0 0 0-.5-.5z" stroke="#5e5e5e" fill="#fff"/><use xlink:href="#g" transform="matrix(1,0,0,1,1530.9141967920057,676.8558325671855) translate(0.49479166666666696 16.444444444444443)"/><path d="M1624 652.33a.5.5 0 0 1 .5-.5h37a.5.5 0 0 1 .5.5v22.96a.5.5 0 0 1-.5.5h-37a.5.5 0 0 1-.5-.5z" fill="#fff" fill-opacity="0"/><path d="M1624.5 652.8a.5.5 0 0 0-.5.5v21.02a.5.5 0 0 0 .5.5h37a.5.5 0 0 0 .5-.5V653.3a.5.5 0 0 0-.5-.5z" stroke="#5e5e5e" fill="#fff"/><use xlink:href="#f" transform="matrix(1,0,0,1,1638.4022074791085,651.8245825671855) translate(0.49479166666666696 16.444444444444443)"/><path d="M1624 677.36a.5.5 0 0 1 .5-.5h37a.5.5 0 0 1 .5.5v22.97a.5.5 0 0 1-.5.5h-37a.5.5 0 0 1-.5-.5z" fill="#fff" fill-opacity="0"/><path d="M1624.5 677.83a.5.5 0 0 0-.5.5v21.02a.5.5 0 0 0 .5.5h37a.5.5 0 0 0 .5-.5v-21.02a.5.5 0 0 0-.5-.5z" stroke="#5e5e5e" fill="#fff"/><use xlink:href="#g" transform="matrix(1,0,0,1,1638.4022074791085,676.8558325671855) translate(0.49479166666666696 16.444444444444443)"/><path d="M1556.5 663.8h65.5" stroke="#5e5e5e" stroke-width="3" fill="none"/><path d="M1556.55 665.3H1555v-3h1.55zM1623.5 665.3h-1.54v-3h1.54z" stroke="#5e5e5e" stroke-width=".05" fill="#5e5e5e"/><path d="M1556.5 688.84h65.5" stroke="#5e5e5e" stroke-width="3" fill="none"/><path d="M1556.55 690.34H1555v-3h1.55zM1623.5 690.34h-1.54v-3h1.54z" stroke="#5e5e5e" stroke-width=".05" fill="#5e5e5e"/><path d="M1591.78 700.18c-3.82 0-6.9-10.37-6.9-23.18 0-12.8 3.08-23.18 6.9-23.18 3.8 0 6.9 10.38 6.9 23.18 0 12.8-3.1 23.18-6.9 23.18zM1286.78 1086.18c-3.82 0-6.9-10.37-6.9-23.18 0-12.8 3.08-23.18 6.9-23.18 3.8 0 6.9 10.38 6.9 23.18 0 12.8-3.1 23.18-6.9 23.18zM1893.78 1087.18c-3.82 0-6.9-10.37-6.9-23.18 0-12.8 3.08-23.18 6.9-23.18 3.8 0 6.9 10.38 6.9 23.18 0 12.8-3.1 23.18-6.9 23.18z" stroke="#5e5e5e" stroke-width="2" fill-opacity="0"/><path d="M1128.4 1004.8a.5.5 0 0 1 .5-.5h37a.5.5 0 0 1 .5.5v22.97a.5.5 0 0 1-.5.5h-37a.5.5 0 0 1-.5-.5z" fill="#fff" fill-opacity="0"/><path d="M1128.9 1005.27a.5.5 0 0 0-.5.5v21.04a.5.5 0 0 0 .5.5h37a.5.5 0 0 0 .5-.5v-21.02a.5.5 0 0 0-.5-.5z" stroke="#5e5e5e" fill="#fff"/><use xlink:href="#l" transform="matrix(1,0,0,1,1142.8100836524723,1004.3056487415016) translate(0.49479166666666696 16.444444444444443)"/><path d="M1167.5 1004.8a.5.5 0 0 1 .5-.5h37a.5.5 0 0 1 .5.5v22.97a.5.5 0 0 1-.5.5h-37a.5.5 0 0 1-.5-.5z" fill="#fff" fill-opacity="0"/><path d="M1168 1005.27a.5.5 0 0 0-.5.5v21.04a.5.5 0 0 0 .5.5h37a.5.5 0 0 0 .5-.5v-21.02a.5.5 0 0 0-.5-.5z" stroke="#5e5e5e" fill="#fff"/><use xlink:href="#m" transform="matrix(1,0,0,1,1181.8936240255052,1004.3056487415016) translate(0.49479166666666696 16.444444444444443)"/><path d="M1367.95 1004.8a.5.5 0 0 1 .5-.5h37a.5.5 0 0 1 .5.5v22.97a.5.5 0 0 1-.5.5h-37a.5.5 0 0 1-.5-.5z" fill="#fff" fill-opacity="0"/><path d="M1368.45 1005.27a.5.5 0 0 0-.5.5v21.04a.5.5 0 0 0 .5.5h37a.5.5 0 0 0 .5-.5v-21.02a.5.5 0 0 0-.5-.5z" stroke="#5e5e5e" fill="#fff"/><use xlink:href="#l" transform="matrix(1,0,0,1,1382.3526408566906,1004.3056487415016) translate(0.49479166666666696 16.444444444444443)"/><path d="M1407.95 1004.8a.5.5 0 0 1 .5-.5h37a.5.5 0 0 1 .5.5v22.97a.5.5 0 0 1-.5.5h-37a.5.5 0 0 1-.5-.5z" fill="#fff" fill-opacity="0"/><path d="M1408.45 1005.27a.5.5 0 0 0-.5.5v21.04a.5.5 0 0 0 .5.5h37a.5.5 0 0 0 .5-.5v-21.02a.5.5 0 0 0-.5-.5z" stroke="#5e5e5e" fill="#fff"/><use xlink:href="#m" transform="matrix(1,0,0,1,1422.3510668212866,1004.3056487415016) translate(0.49479166666666696 16.444444444444443)"/><path d="M1736.2 1004.8a.5.5 0 0 1 .5-.5h37a.5.5 0 0 1 .5.5v22.97a.5.5 0 0 1-.5.5h-37a.5.5 0 0 1-.5-.5z" fill="#fff" fill-opacity="0"/><path d="M1736.7 1005.27a.5.5 0 0 0-.5.5v21.04a.5.5 0 0 0 .5.5h37a.5.5 0 0 0 .5-.5v-21.02a.5.5 0 0 0-.5-.5z" stroke="#5e5e5e" fill="#fff"/><use xlink:href="#l" transform="matrix(1,0,0,1,1750.615262194442,1004.3056487415016) translate(0.49479166666666696 16.444444444444443)"/><path d="M1776.2 1004.8a.5.5 0 0 1 .5-.5h37a.5.5 0 0 1 .5.5v22.97a.5.5 0 0 1-.5.5h-37a.5.5 0 0 1-.5-.5z" fill="#fff" fill-opacity="0"/><path d="M1776.7 1005.27a.5.5 0 0 0-.5.5v21.04a.5.5 0 0 0 .5.5h37a.5.5 0 0 0 .5-.5v-21.02a.5.5 0 0 0-.5-.5z" stroke="#5e5e5e" fill="#fff"/><use xlink:href="#m" transform="matrix(1,0,0,1,1790.6136881590382,1004.3056487415016) translate(0.49479166666666696 16.444444444444443)"/><path d="M1976.2 1004.8a.5.5 0 0 1 .5-.5h37a.5.5 0 0 1 .5.5v22.97a.5.5 0 0 1-.5.5h-37a.5.5 0 0 1-.5-.5z" fill="#fff" fill-opacity="0"/><path d="M1976.7 1005.27a.5.5 0 0 0-.5.5v21.04a.5.5 0 0 0 .5.5h37a.5.5 0 0 0 .5-.5v-21.02a.5.5 0 0 0-.5-.5z" stroke="#5e5e5e" fill="#fff"/><use xlink:href="#l" transform="matrix(1,0,0,1,1990.615262194442,1004.3056487415016) translate(0.49479166666666696 16.444444444444443)"/><path d="M2016.2 1004.8a.5.5 0 0 1 .5-.5h37a.5.5 0 0 1 .5.5v22.97a.5.5 0 0 1-.5.5h-37a.5.5 0 0 1-.5-.5z" fill="#fff" fill-opacity="0"/><path d="M2016.7 1005.27a.5.5 0 0 0-.5.5v21.04a.5.5 0 0 0 .5.5h37a.5.5 0 0 0 .5-.5v-21.02a.5.5 0 0 0-.5-.5z" stroke="#5e5e5e" fill="#fff"/><use xlink:href="#m" transform="matrix(1,0,0,1,2030.6136881590382,1004.3056487415016) translate(0.49479166666666696 16.444444444444443)"/><path d="M1267.32 1239.86L1166.2 1121.7" stroke="#5e5e5e" stroke-width="3" fill="none"/><path d="M1270.27 1241h-3.95l-.17-.2 2.28-1.95zM1167.36 1120.76l-2.27 1.95-1.85-2.14h3.95z" stroke="#5e5e5e" stroke-width=".05" fill="#5e5e5e"/><path d="M1307.9 1239.84l98.1-118.12" stroke="#5e5e5e" stroke-width="3" fill="none"/><path d="M1309.08 1240.77l-.18.22h-3.9l1.77-2.15zM1407.12 1122.7l-2.3-1.9.18-.24h3.9z" stroke="#5e5e5e" stroke-width=".05" fill="#5e5e5e"/><path d="M1147.95 1097.1a.5.5 0 0 1 .5-.5h37a.5.5 0 0 1 .5.5v22.96a.5.5 0 0 1-.5.5h-37a.5.5 0 0 1-.5-.5z" fill="#fff" fill-opacity="0"/><path d="M1148.45 1097.56a.5.5 0 0 0-.5.5v21.03a.5.5 0 0 0 .5.5h37a.5.5 0 0 0 .5-.5v-21.04a.5.5 0 0 0-.5-.5z" stroke="#5e5e5e" fill="#fff"/><use xlink:href="#n" transform="matrix(1,0,0,1,1162.3518538389885,1096.5932581170023) translate(0.49479166666666696 16.444444444444443)"/><path d="M1387.95 1097.1a.5.5 0 0 1 .5-.5h37a.5.5 0 0 1 .5.5v22.96a.5.5 0 0 1-.5.5h-37a.5.5 0 0 1-.5-.5z" fill="#fff" fill-opacity="0"/><path d="M1388.45 1097.56a.5.5 0 0 0-.5.5v21.03a.5.5 0 0 0 .5.5h37a.5.5 0 0 0 .5-.5v-21.04a.5.5 0 0 0-.5-.5z" stroke="#5e5e5e" fill="#fff"/><use xlink:href="#n" transform="matrix(1,0,0,1,1402.3518538389885,1096.5932581170023) translate(0.49479166666666696 16.444444444444443)"/><path d="M1756.2 1097.1a.5.5 0 0 1 .5-.5h37a.5.5 0 0 1 .5.5v22.96a.5.5 0 0 1-.5.5h-37a.5.5 0 0 1-.5-.5z" fill="#fff" fill-opacity="0"/><path d="M1756.7 1097.56a.5.5 0 0 0-.5.5v21.03a.5.5 0 0 0 .5.5h37a.5.5 0 0 0 .5-.5v-21.04a.5.5 0 0 0-.5-.5z" stroke="#5e5e5e" fill="#fff"/><use xlink:href="#n" transform="matrix(1,0,0,1,1770.6144751767401,1096.5932581170023) translate(0.49479166666666696 16.444444444444443)"/><path d="M1996.2 1097.1a.5.5 0 0 1 .5-.5h37a.5.5 0 0 1 .5.5v22.96a.5.5 0 0 1-.5.5h-37a.5.5 0 0 1-.5-.5z" fill="#fff" fill-opacity="0"/><path d="M1996.7 1097.56a.5.5 0 0 0-.5.5v21.03a.5.5 0 0 0 .5.5h37a.5.5 0 0 0 .5-.5v-21.04a.5.5 0 0 0-.5-.5z" stroke="#5e5e5e" fill="#fff"/><use xlink:href="#n" transform="matrix(1,0,0,1,2010.6144751767401,1096.5932581170023) translate(0.49479166666666696 16.444444444444443)"/><g filter="url(#a)"><path d="M1200.05 1253.05a.5.5 0 0 1 .5-.5h168.64a.5.5 0 0 1 .5.5v93.4a.5.5 0 0 1-.5.5h-168.65a.5.5 0 0 1-.5-.5z" fill="#fff" fill-opacity="0"/><path d="M1200.55 1252.55a.5.5 0 0 0-.5.5v93.4a.5.5 0 0 0 .5.5h168.64a.5.5 0 0 0 .5-.5v-93.4a.5.5 0 0 0-.5-.5z" stroke="#6f7681" stroke-width="3" fill="#6f7681"/><use xlink:href="#o" transform="matrix(1,0,0,1,1209.8874707331245,1263.592677714217) translate(27.968749999999993 43.166666666666664)"/></g><g filter="url(#a)"><path d="M1813.7 1253.05a.5.5 0 0 1 .5-.5h168.63a.5.5 0 0 1 .5.5v93.4a.5.5 0 0 1-.5.5h-168.64a.5.5 0 0 1-.5-.5z" fill="#fff" fill-opacity="0"/><path d="M1814.2 1252.55a.5.5 0 0 0-.5.5v93.4a.5.5 0 0 0 .5.5h168.63a.5.5 0 0 0 .5-.5v-93.4a.5.5 0 0 0-.5-.5z" stroke="#6f7681" stroke-width="3" fill="#6f7681"/><use xlink:href="#p" transform="matrix(1,0,0,1,1823.5259917963615,1263.5926777142174) translate(27.968749999999993 43.166666666666664)"/></g><path d="M1246.33 1241.5a.5.5 0 0 1 .5-.5h37a.5.5 0 0 1 .5.5v22.96a.5.5 0 0 1-.5.5h-37a.5.5 0 0 1-.5-.5z" fill="#fff" fill-opacity="0"/><path d="M1246.83 1241.96a.5.5 0 0 0-.5.5v21.03a.5.5 0 0 0 .5.5h37a.5.5 0 0 0 .5-.5v-21.04a.5.5 0 0 0-.5-.5z" stroke="#5e5e5e" fill="#fff"/><use xlink:href="#f" transform="matrix(1,0,0,1,1260.7281173148422,1240.994839923144) translate(0.49479166666666696 16.444444444444443)"/><path d="M1285.4 1241.5a.5.5 0 0 1 .5-.5h37a.5.5 0 0 1 .5.5v22.96a.5.5 0 0 1-.5.5h-37a.5.5 0 0 1-.5-.5z" fill="#fff" fill-opacity="0"/><path d="M1285.9 1241.96a.5.5 0 0 0-.5.5v21.03a.5.5 0 0 0 .5.5h37a.5.5 0 0 0 .5-.5v-21.04a.5.5 0 0 0-.5-.5z" stroke="#5e5e5e" fill="#fff"/><use xlink:href="#l" transform="matrix(1,0,0,1,1299.8116576878754,1240.994839923144) translate(0.49479166666666696 16.444444444444443)"/><path d="M1859.96 1241.5a.5.5 0 0 1 .5-.5h37a.5.5 0 0 1 .5.5v22.96a.5.5 0 0 1-.5.5h-37a.5.5 0 0 1-.5-.5z" fill="#fff" fill-opacity="0"/><path d="M1860.46 1241.96a.5.5 0 0 0-.5.5v21.03a.5.5 0 0 0 .5.5h37a.5.5 0 0 0 .5-.5v-21.04a.5.5 0 0 0-.5-.5z" stroke="#5e5e5e" fill="#fff"/><use xlink:href="#f" transform="matrix(1,0,0,1,1874.3666383780792,1240.994839923144) translate(0.49479166666666696 16.444444444444443)"/><path d="M1899.05 1241.5a.5.5 0 0 1 .5-.5h37a.5.5 0 0 1 .5.5v22.96a.5.5 0 0 1-.5.5h-37a.5.5 0 0 1-.5-.5z" fill="#fff" fill-opacity="0"/><path d="M1899.55 1241.96a.5.5 0 0 0-.5.5v21.03a.5.5 0 0 0 .5.5h37a.5.5 0 0 0 .5-.5v-21.04a.5.5 0 0 0-.5-.5z" stroke="#5e5e5e" fill="#fff"/><use xlink:href="#l" transform="matrix(1,0,0,1,1913.4501787511126,1240.994839923144) translate(0.49479166666666696 16.444444444444443)"/><path d="M1016.1 573.73h218.03v88.02H1016.1z" fill="none"/><use xlink:href="#q" transform="matrix(1,0,0,1,1016.0927961643606,573.7267287741695) translate(0 53.388888888888886)"/><use xlink:href="#r" transform="matrix(1,0,0,1,1016.0927961643606,573.7267287741695) translate(93.70370370370367 53.388888888888886)"/><path d="M1876.47 1239.85L1775.8 1121.7" stroke="#5e5e5e" stroke-width="3" fill="none"/><path d="M1879.42 1241h-3.94l-.17-.2 2.3-1.95zM1776.98 1120.76l-2.3 1.95-1.82-2.14h3.95z" stroke="#5e5e5e" stroke-width=".05" fill="#5e5e5e"/><path d="M1915.67 1239.84l98.2-118.13" stroke="#5e5e5e" stroke-width="3" fill="none"/><path d="M1916.85 1240.77l-.2.22h-3.9l1.8-2.15zM2015 1122.7l-2.3-1.9.2-.24h3.9z" stroke="#5e5e5e" stroke-width=".05" fill="#5e5e5e"/><path d="M2415.6 574.83a20 20 0 0 1 20-20h1170.56a20 20 0 0 1 20 20v598.2a20 20 0 0 1-20 20H2435.6a20 20 0 0 1-20-20z" stroke="#979ea8" stroke-width="2" fill="#f2f3f5"/><path d="M2688.15 621.03a19 19 0 0 1 19-19h626.74a19 19 0 0 1 19 19v122a19 19 0 0 1-19 19h-626.75a19 19 0 0 1-19-19zM3096.53 1001.83a19 19 0 0 1 19-19h422a19 19 0 0 1 19 19v122a19 19 0 0 1-19 19h-422a19 19 0 0 1-19-19zM2482.9 1001.83a19 19 0 0 1 19-19h422a19 19 0 0 1 19 19v122a19 19 0 0 1-19 19h-422a19 19 0 0 1-19-19z" stroke="#ced4db" stroke-width="3" fill="#ced4db"/><g filter="url(#a)"><path d="M3118.4 1017.05a.5.5 0 0 1 .5-.5h168.65a.5.5 0 0 1 .5.5v93.4a.5.5 0 0 1-.5.5H3118.9a.5.5 0 0 1-.5-.5z" fill="#fff" fill-opacity="0"/><path d="M3118.9 1016.55a.5.5 0 0 0-.5.5v93.4a.5.5 0 0 0 .5.5h168.65a.5.5 0 0 0 .5-.5v-93.4a.5.5 0 0 0-.5-.5z" stroke="#315796" stroke-width="3" fill="#315796"/><use xlink:href="#s" transform="matrix(1,0,0,1,3128.2532850882762,1027.5926777142163) translate(31.3671875 43.166666666666664)"/></g><g filter="url(#a)"><path d="M3358.4 1017.05a.5.5 0 0 1 .5-.5h168.65a.5.5 0 0 1 .5.5v93.4a.5.5 0 0 1-.5.5H3358.9a.5.5 0 0 1-.5-.5z" fill="#fff" fill-opacity="0"/><path d="M3358.9 1016.55a.5.5 0 0 0-.5.5v93.4a.5.5 0 0 0 .5.5h168.65a.5.5 0 0 0 .5-.5v-93.4a.5.5 0 0 0-.5-.5z" stroke="#315796" stroke-width="3" fill="#315796"/><use xlink:href="#t" transform="matrix(1,0,0,1,3368.2532850882762,1027.5926777142163) translate(31.3671875 43.166666666666664)"/></g><g filter="url(#a)"><path d="M2510.15 1017.05a.5.5 0 0 1 .5-.5h168.64a.5.5 0 0 1 .5.5v93.4a.5.5 0 0 1-.5.5h-168.65a.5.5 0 0 1-.5-.5z" fill="#fff" fill-opacity="0"/><path d="M2510.65 1016.55a.5.5 0 0 0-.5.5v93.4a.5.5 0 0 0 .5.5h168.64a.5.5 0 0 0 .5-.5v-93.4a.5.5 0 0 0-.5-.5z" stroke="#315796" stroke-width="3" fill="#315796"/><use xlink:href="#u" transform="matrix(1,0,0,1,2519.9906637505246,1027.5926777142163) translate(31.3671875 43.166666666666664)"/></g><g filter="url(#a)"><path d="M2750.15 1017.05a.5.5 0 0 1 .5-.5h168.64a.5.5 0 0 1 .5.5v93.4a.5.5 0 0 1-.5.5h-168.65a.5.5 0 0 1-.5-.5z" fill="#fff" fill-opacity="0"/><path d="M2750.65 1016.55a.5.5 0 0 0-.5.5v93.4a.5.5 0 0 0 .5.5h168.64a.5.5 0 0 0 .5-.5v-93.4a.5.5 0 0 0-.5-.5z" stroke="#315796" stroke-width="3" fill="#315796"/><use xlink:href="#v" transform="matrix(1,0,0,1,2759.9906637505246,1027.5926777142163) translate(31.3671875 43.166666666666664)"/></g><path d="M2662.15 1039.76a.5.5 0 0 1 .5-.5h37a.5.5 0 0 1 .5.5v22.96a.5.5 0 0 1-.5.5h-37a.5.5 0 0 1-.5-.5z" fill="#fff" fill-opacity="0"/><path d="M2662.65 1040.22a.5.5 0 0 0-.5.5v21.03a.5.5 0 0 0 .5.5h37a.5.5 0 0 0 .5-.5v-21.03a.5.5 0 0 0-.5-.5z" stroke="#5e5e5e" fill="#fff"/><use xlink:href="#f" transform="matrix(1,0,0,1,2676.5530329694393,1039.2546928625957) translate(0.49479166666666696 16.444444444444443)"/><path d="M2662.15 1064.8a.5.5 0 0 1 .5-.5h37a.5.5 0 0 1 .5.5v22.96a.5.5 0 0 1-.5.5h-37a.5.5 0 0 1-.5-.5z" fill="#fff" fill-opacity="0"/><path d="M2662.65 1065.26a.5.5 0 0 0-.5.5v21.03a.5.5 0 0 0 .5.5h37a.5.5 0 0 0 .5-.5v-21.04a.5.5 0 0 0-.5-.5z" stroke="#5e5e5e" fill="#fff"/><use xlink:href="#g" transform="matrix(1,0,0,1,2676.5530329694393,1064.2859428625957) translate(0.49479166666666696 16.444444444444443)"/><path d="M2730.15 1039.76a.5.5 0 0 1 .5-.5h37a.5.5 0 0 1 .5.5v22.96a.5.5 0 0 1-.5.5h-37a.5.5 0 0 1-.5-.5z" fill="#fff" fill-opacity="0"/><path d="M2730.65 1040.22a.5.5 0 0 0-.5.5v21.03a.5.5 0 0 0 .5.5h37a.5.5 0 0 0 .5-.5v-21.03a.5.5 0 0 0-.5-.5z" stroke="#5e5e5e" fill="#fff"/><use xlink:href="#f" transform="matrix(1,0,0,1,2744.5530329694393,1039.2546928625957) translate(0.49479166666666696 16.444444444444443)"/><path d="M2730.15 1064.8a.5.5 0 0 1 .5-.5h37a.5.5 0 0 1 .5.5v22.96a.5.5 0 0 1-.5.5h-37a.5.5 0 0 1-.5-.5z" fill="#fff" fill-opacity="0"/><path d="M2730.65 1065.26a.5.5 0 0 0-.5.5v21.03a.5.5 0 0 0 .5.5h37a.5.5 0 0 0 .5-.5v-21.04a.5.5 0 0 0-.5-.5z" stroke="#5e5e5e" fill="#fff"/><use xlink:href="#g" transform="matrix(1,0,0,1,2744.5530329694393,1064.2859428625957) translate(0.49479166666666696 16.444444444444443)"/><path d="M2702.15 1051.24h26" stroke="#5e5e5e" stroke-width="3" fill="none"/><path d="M2702.2 1052.74h-1.55v-3h1.54zM2729.65 1052.74h-1.54v-3h1.55z" stroke="#5e5e5e" stroke-width=".05" fill="#5e5e5e"/><path d="M2702.15 1076.27h26" stroke="#5e5e5e" stroke-width="3" fill="none"/><path d="M2702.2 1077.77h-1.55v-3h1.54zM2729.65 1077.77h-1.54v-3h1.55z" stroke="#5e5e5e" stroke-width=".05" fill="#5e5e5e"/><path d="M3270.05 1039.76a.5.5 0 0 1 .5-.5h37a.5.5 0 0 1 .5.5v22.96a.5.5 0 0 1-.5.5h-37a.5.5 0 0 1-.5-.5z" fill="#fff" fill-opacity="0"/><path d="M3270.55 1040.22a.5.5 0 0 0-.5.5v21.03a.5.5 0 0 0 .5.5h37a.5.5 0 0 0 .5-.5v-21.03a.5.5 0 0 0-.5-.5z" stroke="#5e5e5e" fill="#fff"/><use xlink:href="#f" transform="matrix(1,0,0,1,3284.455749405831,1039.2546928625957) translate(0.49479166666666696 16.444444444444443)"/><path d="M3270.05 1064.8a.5.5 0 0 1 .5-.5h37a.5.5 0 0 1 .5.5v22.96a.5.5 0 0 1-.5.5h-37a.5.5 0 0 1-.5-.5z" fill="#fff" fill-opacity="0"/><path d="M3270.55 1065.26a.5.5 0 0 0-.5.5v21.03a.5.5 0 0 0 .5.5h37a.5.5 0 0 0 .5-.5v-21.04a.5.5 0 0 0-.5-.5z" stroke="#5e5e5e" fill="#fff"/><use xlink:href="#g" transform="matrix(1,0,0,1,3284.455749405831,1064.2859428625957) translate(0.49479166666666696 16.444444444444443)"/><path d="M3338.05 1039.76a.5.5 0 0 1 .5-.5h37a.5.5 0 0 1 .5.5v22.96a.5.5 0 0 1-.5.5h-37a.5.5 0 0 1-.5-.5z" fill="#fff" fill-opacity="0"/><path d="M3338.55 1040.22a.5.5 0 0 0-.5.5v21.03a.5.5 0 0 0 .5.5h37a.5.5 0 0 0 .5-.5v-21.03a.5.5 0 0 0-.5-.5z" stroke="#5e5e5e" fill="#fff"/><use xlink:href="#f" transform="matrix(1,0,0,1,3352.455749405831,1039.2546928625957) translate(0.49479166666666696 16.444444444444443)"/><path d="M3338.05 1064.8a.5.5 0 0 1 .5-.5h37a.5.5 0 0 1 .5.5v22.96a.5.5 0 0 1-.5.5h-37a.5.5 0 0 1-.5-.5z" fill="#fff" fill-opacity="0"/><path d="M3338.55 1065.26a.5.5 0 0 0-.5.5v21.03a.5.5 0 0 0 .5.5h37a.5.5 0 0 0 .5-.5v-21.04a.5.5 0 0 0-.5-.5z" stroke="#5e5e5e" fill="#fff"/><use xlink:href="#g" transform="matrix(1,0,0,1,3352.455749405831,1064.2859428625957) translate(0.49479166666666696 16.444444444444443)"/><path d="M3310.05 1051.24h26" stroke="#5e5e5e" stroke-width="3" fill="none"/><path d="M3310.1 1052.74h-1.55v-3h1.54zM3337.55 1052.74h-1.53v-3h1.53z" stroke="#5e5e5e" stroke-width=".05" fill="#5e5e5e"/><path d="M3310.05 1076.27h26" stroke="#5e5e5e" stroke-width="3" fill="none"/><path d="M3310.1 1077.77h-1.55v-3h1.54zM3337.55 1077.77h-1.53v-3h1.53z" stroke="#5e5e5e" stroke-width=".05" fill="#5e5e5e"/><g filter="url(#j)"><path d="M2710.9 634.33a.5.5 0 0 1 .5-.5h251.15a.5.5 0 0 1 .5.5v93.4a.5.5 0 0 1-.5.5H2711.4a.5.5 0 0 1-.5-.5z" fill="#fff" fill-opacity="0"/><path d="M2711.4 633.83a.5.5 0 0 0-.5.5v93.4a.5.5 0 0 0 .5.5h251.15a.5.5 0 0 0 .5-.5v-93.4a.5.5 0 0 0-.5-.5z" stroke="#315796" stroke-width="3" fill="#315796"/><use xlink:href="#w" transform="matrix(1,0,0,1,2725.514203722846,644.8714644793532) translate(58.967447916666664 43.166666666666664)"/></g><g filter="url(#j)"><path d="M3074.9 634.33a.5.5 0 0 1 .5-.5h251.15a.5.5 0 0 1 .5.5v93.4a.5.5 0 0 1-.5.5H3075.4a.5.5 0 0 1-.5-.5z" fill="#fff" fill-opacity="0"/><path d="M3075.4 633.83a.5.5 0 0 0-.5.5v93.4a.5.5 0 0 0 .5.5h251.15a.5.5 0 0 0 .5-.5v-93.4a.5.5 0 0 0-.5-.5z" stroke="#315796" stroke-width="3" fill="#315796"/><use xlink:href="#x" transform="matrix(1,0,0,1,3089.514203722846,644.8714644793532) translate(58.967447916666664 43.166666666666664)"/></g><path d="M2576 1003.1L2774.5 740" stroke="#5e5e5e" stroke-width="3" fill="none"/><path d="M2577.2 1003.98l-.23.33h-3.76l1.62-2.13zM2775.67 740.92l-2.4-1.8.25-.33h3.76z" stroke="#5e5e5e" stroke-width=".05" fill="#5e5e5e"/><path d="M2615.66 1003.63l525.4-264.16" stroke="#5e5e5e" stroke-width="3" fill="none"/><path d="M2616.05 1004.3H2611l4.03-2.03zM3141.7 740.83l-1.02-2.04h5.06z" stroke="#5e5e5e" stroke-width=".05" fill="#5e5e5e"/><path d="M2815.3 1002.8l1.5-262.5" stroke="#5e5e5e" stroke-width="3" fill="none"/><path d="M2816.8 1002.78v1.53h-3v-1.54zM2818.3 740.34l-3-.02v-1.53h3z" stroke="#5e5e5e" stroke-width=".05" fill="#5e5e5e"/><path d="M2856.8 1003.35l321.24-263.6" stroke="#5e5e5e" stroke-width="3" fill="none"/><path d="M2857.64 1004.3h-4.35l2.6-2.13zM3178.96 740.93l-1.75-2.14h4.37z" stroke="#5e5e5e" stroke-width=".05" fill="#5e5e5e"/><path d="M3185.54 1003.37l-327.57-263.64" stroke="#5e5e5e" stroke-width="3" fill="none"/><path d="M3189.1 1004.3h-4.37l1.72-2.13zM2857.06 740.93l-2.65-2.14h4.38z" stroke="#5e5e5e" stroke-width=".05" fill="#5e5e5e"/><path d="M3223.13 1002.8l-2.32-262.5" stroke="#5e5e5e" stroke-width="3" fill="none"/><path d="M3224.64 1004.3h-3v-1.52l3-.03zM3222.3 740.32l-3 .02v-1.55h3z" stroke="#5e5e5e" stroke-width=".05" fill="#5e5e5e"/><path d="M3421.48 1003.63l-523.34-264.16" stroke="#5e5e5e" stroke-width="3" fill="none"/><path d="M3426.15 1004.3h-5.05l1.02-2.03zM2897.5 740.83l-4.03-2.04h5.05z" stroke="#5e5e5e" stroke-width=".05" fill="#5e5e5e"/><path d="M3461.6 1003.12l-203.88-263.14" stroke="#5e5e5e" stroke-width="3" fill="none"/><path d="M3464.4 1004.3h-3.78l-.23-.3 2.36-1.83zM3258.93 739.1l-2.37 1.83-1.66-2.14h3.8z" stroke="#5e5e5e" stroke-width=".05" fill="#5e5e5e"/><path d="M2942.53 652.33a.5.5 0 0 1 .5-.5h37a.5.5 0 0 1 .5.5v22.96a.5.5 0 0 1-.5.5h-37a.5.5 0 0 1-.5-.5z" fill="#fff" fill-opacity="0"/><path d="M2943.03 652.8a.5.5 0 0 0-.5.5v21.02a.5.5 0 0 0 .5.5h37a.5.5 0 0 0 .5-.5V653.3a.5.5 0 0 0-.5-.5z" stroke="#5e5e5e" fill="#fff"/><use xlink:href="#f" transform="matrix(1,0,0,1,2956.9354234717766,651.8245825671851) translate(0.49479166666666696 16.444444444444443)"/><path d="M2942.53 677.36a.5.5 0 0 1 .5-.5h37a.5.5 0 0 1 .5.5v22.97a.5.5 0 0 1-.5.5h-37a.5.5 0 0 1-.5-.5z" fill="#fff" fill-opacity="0"/><path d="M2943.03 677.83a.5.5 0 0 0-.5.5v21.02a.5.5 0 0 0 .5.5h37a.5.5 0 0 0 .5-.5v-21.02a.5.5 0 0 0-.5-.5z" stroke="#5e5e5e" fill="#fff"/><use xlink:href="#g" transform="matrix(1,0,0,1,2956.9354234717766,676.8558325671851) translate(0.49479166666666696 16.444444444444443)"/><path d="M3050.02 652.33a.5.5 0 0 1 .5-.5h37a.5.5 0 0 1 .5.5v22.96a.5.5 0 0 1-.5.5h-37a.5.5 0 0 1-.5-.5z" fill="#fff" fill-opacity="0"/><path d="M3050.52 652.8a.5.5 0 0 0-.5.5v21.02a.5.5 0 0 0 .5.5h37a.5.5 0 0 0 .5-.5V653.3a.5.5 0 0 0-.5-.5z" stroke="#5e5e5e" fill="#fff"/><use xlink:href="#f" transform="matrix(1,0,0,1,3064.4234341588794,651.8245825671851) translate(0.49479166666666696 16.444444444444443)"/><path d="M3050.02 677.36a.5.5 0 0 1 .5-.5h37a.5.5 0 0 1 .5.5v22.97a.5.5 0 0 1-.5.5h-37a.5.5 0 0 1-.5-.5z" fill="#fff" fill-opacity="0"/><path d="M3050.52 677.83a.5.5 0 0 0-.5.5v21.02a.5.5 0 0 0 .5.5h37a.5.5 0 0 0 .5-.5v-21.02a.5.5 0 0 0-.5-.5z" stroke="#5e5e5e" fill="#fff"/><use xlink:href="#g" transform="matrix(1,0,0,1,3064.4234341588794,676.8558325671851) translate(0.49479166666666696 16.444444444444443)"/><path d="M2982.53 663.8h65.5" stroke="#5e5e5e" stroke-width="3" fill="none"/><path d="M2982.57 665.3h-1.54v-3h1.54zM3049.52 665.3h-1.54v-3h1.54z" stroke="#5e5e5e" stroke-width=".05" fill="#5e5e5e"/><path d="M2982.53 688.84h65.5" stroke="#5e5e5e" stroke-width="3" fill="none"/><path d="M2982.57 690.34h-1.54v-3h1.54zM3049.52 690.34h-1.54v-3h1.54z" stroke="#5e5e5e" stroke-width=".05" fill="#5e5e5e"/><path d="M3017.8 700.2c-3.82 0-6.9-10.4-6.9-23.2 0-12.8 3.08-23.18 6.9-23.18 3.8 0 6.9 10.38 6.9 23.2 0 12.8-3.1 23.17-6.9 23.17zM2714.8 1086.2c-3.82 0-6.9-10.4-6.9-23.2 0-12.8 3.08-23.18 6.9-23.18 3.8 0 6.9 10.38 6.9 23.2 0 12.8-3.1 23.17-6.9 23.17zM3321.8 1087.2c-3.82 0-6.9-10.4-6.9-23.2 0-12.8 3.08-23.18 6.9-23.18 3.8 0 6.9 10.38 6.9 23.2 0 12.8-3.1 23.17-6.9 23.17z" stroke="#5e5e5e" stroke-width="2" fill-opacity="0"/><path d="M2556.43 1004.8a.5.5 0 0 1 .5-.5h37a.5.5 0 0 1 .5.5v22.97a.5.5 0 0 1-.5.5h-37a.5.5 0 0 1-.5-.5z" fill="#fff" fill-opacity="0"/><path d="M2556.93 1005.27a.5.5 0 0 0-.5.5v21.04a.5.5 0 0 0 .5.5h37a.5.5 0 0 0 .5-.5v-21.02a.5.5 0 0 0-.5-.5z" stroke="#5e5e5e" fill="#fff"/><use xlink:href="#l" transform="matrix(1,0,0,1,2570.8313103322434,1004.305648741501) translate(0.49479166666666696 16.444444444444443)"/><path d="M2595.5 1004.8a.5.5 0 0 1 .5-.5h37a.5.5 0 0 1 .5.5v22.97a.5.5 0 0 1-.5.5h-37a.5.5 0 0 1-.5-.5z" fill="#fff" fill-opacity="0"/><path d="M2596 1005.27a.5.5 0 0 0-.5.5v21.04a.5.5 0 0 0 .5.5h37a.5.5 0 0 0 .5-.5v-21.02a.5.5 0 0 0-.5-.5z" stroke="#5e5e5e" fill="#fff"/><use xlink:href="#m" transform="matrix(1,0,0,1,2609.914850705276,1004.305648741501) translate(0.49479166666666696 16.444444444444443)"/><path d="M2795.97 1004.8a.5.5 0 0 1 .5-.5h37a.5.5 0 0 1 .5.5v22.97a.5.5 0 0 1-.5.5h-37a.5.5 0 0 1-.5-.5z" fill="#fff" fill-opacity="0"/><path d="M2796.47 1005.27a.5.5 0 0 0-.5.5v21.04a.5.5 0 0 0 .5.5h37a.5.5 0 0 0 .5-.5v-21.02a.5.5 0 0 0-.5-.5z" stroke="#5e5e5e" fill="#fff"/><use xlink:href="#l" transform="matrix(1,0,0,1,2810.373867536462,1004.305648741501) translate(0.49479166666666696 16.444444444444443)"/><path d="M2835.97 1004.8a.5.5 0 0 1 .5-.5h37a.5.5 0 0 1 .5.5v22.97a.5.5 0 0 1-.5.5h-37a.5.5 0 0 1-.5-.5z" fill="#fff" fill-opacity="0"/><path d="M2836.47 1005.27a.5.5 0 0 0-.5.5v21.04a.5.5 0 0 0 .5.5h37a.5.5 0 0 0 .5-.5v-21.02a.5.5 0 0 0-.5-.5z" stroke="#5e5e5e" fill="#fff"/><use xlink:href="#m" transform="matrix(1,0,0,1,2850.372293501058,1004.305648741501) translate(0.49479166666666696 16.444444444444443)"/><path d="M3164.24 1004.8a.5.5 0 0 1 .5-.5h37a.5.5 0 0 1 .5.5v22.97a.5.5 0 0 1-.5.5h-37a.5.5 0 0 1-.5-.5z" fill="#fff" fill-opacity="0"/><path d="M3164.74 1005.27a.5.5 0 0 0-.5.5v21.04a.5.5 0 0 0 .5.5h37a.5.5 0 0 0 .5-.5v-21.02a.5.5 0 0 0-.5-.5z" stroke="#5e5e5e" fill="#fff"/><use xlink:href="#l" transform="matrix(1,0,0,1,3178.6364888742137,1004.305648741501) translate(0.49479166666666696 16.444444444444443)"/><path d="M3204.23 1004.8a.5.5 0 0 1 .5-.5h37a.5.5 0 0 1 .5.5v22.97a.5.5 0 0 1-.5.5h-37a.5.5 0 0 1-.5-.5z" fill="#fff" fill-opacity="0"/><path d="M3204.73 1005.27a.5.5 0 0 0-.5.5v21.04a.5.5 0 0 0 .5.5h37a.5.5 0 0 0 .5-.5v-21.02a.5.5 0 0 0-.5-.5z" stroke="#5e5e5e" fill="#fff"/><use xlink:href="#m" transform="matrix(1,0,0,1,3218.63491483881,1004.305648741501) translate(0.49479166666666696 16.444444444444443)"/><path d="M3404.24 1004.8a.5.5 0 0 1 .5-.5h37a.5.5 0 0 1 .5.5v22.97a.5.5 0 0 1-.5.5h-37a.5.5 0 0 1-.5-.5z" fill="#fff" fill-opacity="0"/><path d="M3404.74 1005.27a.5.5 0 0 0-.5.5v21.04a.5.5 0 0 0 .5.5h37a.5.5 0 0 0 .5-.5v-21.02a.5.5 0 0 0-.5-.5z" stroke="#5e5e5e" fill="#fff"/><use xlink:href="#l" transform="matrix(1,0,0,1,3418.6364888742137,1004.305648741501) translate(0.49479166666666696 16.444444444444443)"/><path d="M3444.23 1004.8a.5.5 0 0 1 .5-.5h37a.5.5 0 0 1 .5.5v22.97a.5.5 0 0 1-.5.5h-37a.5.5 0 0 1-.5-.5z" fill="#fff" fill-opacity="0"/><path d="M3444.73 1005.27a.5.5 0 0 0-.5.5v21.04a.5.5 0 0 0 .5.5h37a.5.5 0 0 0 .5-.5v-21.02a.5.5 0 0 0-.5-.5z" stroke="#5e5e5e" fill="#fff"/><use xlink:href="#m" transform="matrix(1,0,0,1,3458.63491483881,1004.305648741501) translate(0.49479166666666696 16.444444444444443)"/><path d="M2695.34 1239.86l-101.12-118.16" stroke="#5e5e5e" stroke-width="3" fill="none"/><path d="M2698.3 1241h-3.96l-.16-.2 2.28-1.95zM2595.4 1120.76l-2.3 1.95-1.83-2.14h3.95z" stroke="#5e5e5e" stroke-width=".05" fill="#5e5e5e"/><path d="M2735.92 1239.84l98.1-118.12" stroke="#5e5e5e" stroke-width="3" fill="none"/><path d="M2737.1 1240.77l-.18.22h-3.9l1.78-2.15zM2835.14 1122.7l-2.3-1.9.18-.24h3.9z" stroke="#5e5e5e" stroke-width=".05" fill="#5e5e5e"/><path d="M2575.97 1097.1a.5.5 0 0 1 .5-.5h37a.5.5 0 0 1 .5.5v22.96a.5.5 0 0 1-.5.5h-37a.5.5 0 0 1-.5-.5z" fill="#fff" fill-opacity="0"/><path d="M2576.47 1097.56a.5.5 0 0 0-.5.5v21.03a.5.5 0 0 0 .5.5h37a.5.5 0 0 0 .5-.5v-21.04a.5.5 0 0 0-.5-.5z" stroke="#5e5e5e" fill="#fff"/><use xlink:href="#n" transform="matrix(1,0,0,1,2590.3730805187597,1096.5932581170018) translate(0.49479166666666696 16.444444444444443)"/><path d="M2815.97 1097.1a.5.5 0 0 1 .5-.5h37a.5.5 0 0 1 .5.5v22.96a.5.5 0 0 1-.5.5h-37a.5.5 0 0 1-.5-.5z" fill="#fff" fill-opacity="0"/><path d="M2816.47 1097.56a.5.5 0 0 0-.5.5v21.03a.5.5 0 0 0 .5.5h37a.5.5 0 0 0 .5-.5v-21.04a.5.5 0 0 0-.5-.5z" stroke="#5e5e5e" fill="#fff"/><use xlink:href="#n" transform="matrix(1,0,0,1,2830.3730805187597,1096.5932581170018) translate(0.49479166666666696 16.444444444444443)"/><path d="M3184.23 1097.1a.5.5 0 0 1 .5-.5h37a.5.5 0 0 1 .5.5v22.96a.5.5 0 0 1-.5.5h-37a.5.5 0 0 1-.5-.5z" fill="#fff" fill-opacity="0"/><path d="M3184.73 1097.56a.5.5 0 0 0-.5.5v21.03a.5.5 0 0 0 .5.5h37a.5.5 0 0 0 .5-.5v-21.04a.5.5 0 0 0-.5-.5z" stroke="#5e5e5e" fill="#fff"/><use xlink:href="#n" transform="matrix(1,0,0,1,3198.6357018565113,1096.5932581170018) translate(0.49479166666666696 16.444444444444443)"/><path d="M3424.23 1097.1a.5.5 0 0 1 .5-.5h37a.5.5 0 0 1 .5.5v22.96a.5.5 0 0 1-.5.5h-37a.5.5 0 0 1-.5-.5z" fill="#fff" fill-opacity="0"/><path d="M3424.73 1097.56a.5.5 0 0 0-.5.5v21.03a.5.5 0 0 0 .5.5h37a.5.5 0 0 0 .5-.5v-21.04a.5.5 0 0 0-.5-.5z" stroke="#5e5e5e" fill="#fff"/><use xlink:href="#n" transform="matrix(1,0,0,1,3438.6357018565113,1096.5932581170018) translate(0.49479166666666696 16.444444444444443)"/><g filter="url(#a)"><path d="M2628.07 1253.05a.5.5 0 0 1 .5-.5h168.64a.5.5 0 0 1 .5.5v93.4a.5.5 0 0 1-.5.5h-168.63a.5.5 0 0 1-.5-.5z" fill="#fff" fill-opacity="0"/><path d="M2628.57 1252.55a.5.5 0 0 0-.5.5v93.4a.5.5 0 0 0 .5.5h168.64a.5.5 0 0 0 .5-.5v-93.4a.5.5 0 0 0-.5-.5z" stroke="#6f7681" stroke-width="3" fill="#6f7681"/><use xlink:href="#y" transform="matrix(1,0,0,1,2637.908697412895,1263.5926777142165) translate(27.968749999999993 43.166666666666664)"/></g><g filter="url(#a)"><path d="M3241.7 1253.05a.5.5 0 0 1 .5-.5h168.65a.5.5 0 0 1 .5.5v93.4a.5.5 0 0 1-.5.5H3242.2a.5.5 0 0 1-.5-.5z" fill="#fff" fill-opacity="0"/><path d="M3242.2 1252.55a.5.5 0 0 0-.5.5v93.4a.5.5 0 0 0 .5.5h168.65a.5.5 0 0 0 .5-.5v-93.4a.5.5 0 0 0-.5-.5z" stroke="#6f7681" stroke-width="3" fill="#6f7681"/><use xlink:href="#z" transform="matrix(1,0,0,1,3251.547218476132,1263.592677714217) translate(27.968749999999993 43.166666666666664)"/></g><path d="M2674.35 1241.5a.5.5 0 0 1 .5-.5h37a.5.5 0 0 1 .5.5v22.96a.5.5 0 0 1-.5.5h-37a.5.5 0 0 1-.5-.5z" fill="#fff" fill-opacity="0"/><path d="M2674.85 1241.96a.5.5 0 0 0-.5.5v21.03a.5.5 0 0 0 .5.5h37a.5.5 0 0 0 .5-.5v-21.04a.5.5 0 0 0-.5-.5z" stroke="#5e5e5e" fill="#fff"/><use xlink:href="#f" transform="matrix(1,0,0,1,2688.749343994614,1240.9948399231434) translate(0.49479166666666696 16.444444444444443)"/><path d="M2713.43 1241.5a.5.5 0 0 1 .5-.5h37a.5.5 0 0 1 .5.5v22.96a.5.5 0 0 1-.5.5h-37a.5.5 0 0 1-.5-.5z" fill="#fff" fill-opacity="0"/><path d="M2713.93 1241.96a.5.5 0 0 0-.5.5v21.03a.5.5 0 0 0 .5.5h37a.5.5 0 0 0 .5-.5v-21.04a.5.5 0 0 0-.5-.5z" stroke="#5e5e5e" fill="#fff"/><use xlink:href="#l" transform="matrix(1,0,0,1,2727.8328843676463,1240.9948399231434) translate(0.49479166666666696 16.444444444444443)"/><path d="M3288 1241.5a.5.5 0 0 1 .5-.5h37a.5.5 0 0 1 .5.5v22.96a.5.5 0 0 1-.5.5h-37a.5.5 0 0 1-.5-.5z" fill="#fff" fill-opacity="0"/><path d="M3288.5 1241.96a.5.5 0 0 0-.5.5v21.03a.5.5 0 0 0 .5.5h37a.5.5 0 0 0 .5-.5v-21.04a.5.5 0 0 0-.5-.5z" stroke="#5e5e5e" fill="#fff"/><use xlink:href="#f" transform="matrix(1,0,0,1,3302.387865057851,1240.9948399231434) translate(0.49479166666666696 16.444444444444443)"/><path d="M3327.07 1241.5a.5.5 0 0 1 .5-.5h37a.5.5 0 0 1 .5.5v22.96a.5.5 0 0 1-.5.5h-37a.5.5 0 0 1-.5-.5z" fill="#fff" fill-opacity="0"/><path d="M3327.57 1241.96a.5.5 0 0 0-.5.5v21.03a.5.5 0 0 0 .5.5h37a.5.5 0 0 0 .5-.5v-21.04a.5.5 0 0 0-.5-.5z" stroke="#5e5e5e" fill="#fff"/><use xlink:href="#l" transform="matrix(1,0,0,1,3341.4714054308834,1240.9948399231434) translate(0.49479166666666696 16.444444444444443)"/><path d="M3304.5 1239.85l-100.67-118.15" stroke="#5e5e5e" stroke-width="3" fill="none"/><path d="M3307.44 1241h-3.94l-.17-.2 2.28-1.95zM3205 1120.76l-2.3 1.95-1.8-2.14h3.93z" stroke="#5e5e5e" stroke-width=".05" fill="#5e5e5e"/><path d="M3343.7 1239.84l98.2-118.13" stroke="#5e5e5e" stroke-width="3" fill="none"/><path d="M3344.87 1240.77l-.2.22h-3.9l1.8-2.15zM3443.03 1122.7l-2.3-1.9.18-.24h3.9z" stroke="#5e5e5e" stroke-width=".05" fill="#5e5e5e"/><path d="M3359.07 573.73h218.04v88.02h-218.03z" fill="none"/><use xlink:href="#q" transform="matrix(1,0,0,1,3359.0684279548977,573.7267287741695) translate(100.604938271605 53.388888888888886)"/><use xlink:href="#A" transform="matrix(1,0,0,1,3359.0684279548977,573.7267287741695) translate(194.30864197530866 53.388888888888886)"/><path d="M1333.4 715.33a.5.5 0 0 1 .5-.5h37a.5.5 0 0 1 .5.5v22.96a.5.5 0 0 1-.5.5h-37a.5.5 0 0 1-.5-.5z" fill="#fff" fill-opacity="0"/><path d="M1333.9 715.8a.5.5 0 0 0-.5.5v21.02a.5.5 0 0 0 .5.5h37a.5.5 0 0 0 .5-.5V716.3a.5.5 0 0 0-.5-.5z" stroke="#5e5e5e" fill="#fff"/><use xlink:href="#l" transform="matrix(1,0,0,1,1347.7975235740328,714.8245825671855) translate(0.49479166666666696 16.444444444444443)"/><path d="M1373.4 715.33a.5.5 0 0 1 .5-.5h37a.5.5 0 0 1 .5.5v22.96a.5.5 0 0 1-.5.5h-37a.5.5 0 0 1-.5-.5z" fill="#fff" fill-opacity="0"/><path d="M1373.9 715.8a.5.5 0 0 0-.5.5v21.02a.5.5 0 0 0 .5.5h37a.5.5 0 0 0 .5-.5V716.3a.5.5 0 0 0-.5-.5z" stroke="#5e5e5e" fill="#fff"/><use xlink:href="#m" transform="matrix(1,0,0,1,1387.795949538629,714.8245825671855) translate(0.49479166666666696 16.444444444444443)"/><path d="M1413.4 715.33a.5.5 0 0 1 .5-.5h37a.5.5 0 0 1 .5.5v22.96a.5.5 0 0 1-.5.5h-37a.5.5 0 0 1-.5-.5z" fill="#fff" fill-opacity="0"/><path d="M1413.9 715.8a.5.5 0 0 0-.5.5v21.02a.5.5 0 0 0 .5.5h37a.5.5 0 0 0 .5-.5V716.3a.5.5 0 0 0-.5-.5z" stroke="#5e5e5e" fill="#fff"/><use xlink:href="#n" transform="matrix(1,0,0,1,1427.798310591735,714.8245825671855) translate(0.49479166666666696 16.444444444444443)"/><path d="M1453.4 715.33a.5.5 0 0 1 .5-.5h37a.5.5 0 0 1 .5.5v22.96a.5.5 0 0 1-.5.5h-37a.5.5 0 0 1-.5-.5z" fill="#fff" fill-opacity="0"/><path d="M1453.9 715.8a.5.5 0 0 0-.5.5v21.02a.5.5 0 0 0 .5.5h37a.5.5 0 0 0 .5-.5V716.3a.5.5 0 0 0-.5-.5z" stroke="#5e5e5e" fill="#fff"/><use xlink:href="#B" transform="matrix(1,0,0,1,1467.7967365563313,714.8245825671855) translate(0.49479166666666696 16.444444444444443)"/><path d="M1695.95 715.33a.5.5 0 0 1 .5-.5h37a.5.5 0 0 1 .5.5v22.96a.5.5 0 0 1-.5.5h-37a.5.5 0 0 1-.5-.5z" fill="#fff" fill-opacity="0"/><path d="M1696.45 715.8a.5.5 0 0 0-.5.5v21.02a.5.5 0 0 0 .5.5h37a.5.5 0 0 0 .5-.5V716.3a.5.5 0 0 0-.5-.5z" stroke="#5e5e5e" fill="#fff"/><use xlink:href="#l" transform="matrix(1,0,0,1,1710.3502810102095,714.8245825671851) translate(0.49479166666666696 16.444444444444443)"/><path d="M1735.95 715.33a.5.5 0 0 1 .5-.5h37a.5.5 0 0 1 .5.5v22.96a.5.5 0 0 1-.5.5h-37a.5.5 0 0 1-.5-.5z" fill="#fff" fill-opacity="0"/><path d="M1736.45 715.8a.5.5 0 0 0-.5.5v21.02a.5.5 0 0 0 .5.5h37a.5.5 0 0 0 .5-.5V716.3a.5.5 0 0 0-.5-.5z" stroke="#5e5e5e" fill="#fff"/><use xlink:href="#m" transform="matrix(1,0,0,1,1750.3487069748057,714.8245825671851) translate(0.49479166666666696 16.444444444444443)"/><path d="M1775.95 715.33a.5.5 0 0 1 .5-.5h37a.5.5 0 0 1 .5.5v22.96a.5.5 0 0 1-.5.5h-37a.5.5 0 0 1-.5-.5z" fill="#fff" fill-opacity="0"/><path d="M1776.45 715.8a.5.5 0 0 0-.5.5v21.02a.5.5 0 0 0 .5.5h37a.5.5 0 0 0 .5-.5V716.3a.5.5 0 0 0-.5-.5z" stroke="#5e5e5e" fill="#fff"/><use xlink:href="#n" transform="matrix(1,0,0,1,1790.3510680279117,714.8245825671851) translate(0.49479166666666696 16.444444444444443)"/><path d="M1815.95 715.33a.5.5 0 0 1 .5-.5h37a.5.5 0 0 1 .5.5v22.96a.5.5 0 0 1-.5.5h-37a.5.5 0 0 1-.5-.5z" fill="#fff" fill-opacity="0"/><path d="M1816.45 715.8a.5.5 0 0 0-.5.5v21.02a.5.5 0 0 0 .5.5h37a.5.5 0 0 0 .5-.5V716.3a.5.5 0 0 0-.5-.5z" stroke="#5e5e5e" fill="#fff"/><use xlink:href="#B" transform="matrix(1,0,0,1,1830.349493992508,714.8245825671851) translate(0.49479166666666696 16.444444444444443)"/><path d="M3121.97 715.33a.5.5 0 0 1 .5-.5h37a.5.5 0 0 1 .5.5v22.96a.5.5 0 0 1-.5.5h-37a.5.5 0 0 1-.5-.5z" fill="#fff" fill-opacity="0"/><path d="M3122.47 715.8a.5.5 0 0 0-.5.5v21.02a.5.5 0 0 0 .5.5h37a.5.5 0 0 0 .5-.5V716.3a.5.5 0 0 0-.5-.5z" stroke="#5e5e5e" fill="#fff"/><use xlink:href="#l" transform="matrix(1,0,0,1,3136.3715076899803,714.8245825671855) translate(0.49479166666666696 16.444444444444443)"/><path d="M3161.97 715.33a.5.5 0 0 1 .5-.5h37a.5.5 0 0 1 .5.5v22.96a.5.5 0 0 1-.5.5h-37a.5.5 0 0 1-.5-.5z" fill="#fff" fill-opacity="0"/><path d="M3162.47 715.8a.5.5 0 0 0-.5.5v21.02a.5.5 0 0 0 .5.5h37a.5.5 0 0 0 .5-.5V716.3a.5.5 0 0 0-.5-.5z" stroke="#5e5e5e" fill="#fff"/><use xlink:href="#m" transform="matrix(1,0,0,1,3176.3699336545765,714.8245825671855) translate(0.49479166666666696 16.444444444444443)"/><path d="M3201.97 715.33a.5.5 0 0 1 .5-.5h37a.5.5 0 0 1 .5.5v22.96a.5.5 0 0 1-.5.5h-37a.5.5 0 0 1-.5-.5z" fill="#fff" fill-opacity="0"/><path d="M3202.47 715.8a.5.5 0 0 0-.5.5v21.02a.5.5 0 0 0 .5.5h37a.5.5 0 0 0 .5-.5V716.3a.5.5 0 0 0-.5-.5z" stroke="#5e5e5e" fill="#fff"/><use xlink:href="#n" transform="matrix(1,0,0,1,3216.372294707682,714.8245825671855) translate(0.49479166666666696 16.444444444444443)"/><path d="M3241.97 715.33a.5.5 0 0 1 .5-.5h37a.5.5 0 0 1 .5.5v22.96a.5.5 0 0 1-.5.5h-37a.5.5 0 0 1-.5-.5z" fill="#fff" fill-opacity="0"/><path d="M3242.47 715.8a.5.5 0 0 0-.5.5v21.02a.5.5 0 0 0 .5.5h37a.5.5 0 0 0 .5-.5V716.3a.5.5 0 0 0-.5-.5z" stroke="#5e5e5e" fill="#fff"/><use xlink:href="#B" transform="matrix(1,0,0,1,3256.370720672279,714.8245825671855) translate(0.49479166666666696 16.444444444444443)"/><path d="M1373.4 622.9a.5.5 0 0 1 .5-.5h37a.5.5 0 0 1 .5.5v22.95a.5.5 0 0 1-.5.5h-37a.5.5 0 0 1-.5-.5z" fill="#fff" fill-opacity="0"/><path d="M1373.9 623.35a.5.5 0 0 0-.5.5v21.03a.5.5 0 0 0 .5.5h37a.5.5 0 0 0 .5-.5v-21.03a.5.5 0 0 0-.5-.5z" stroke="#5e5e5e" fill="#fff"/><use xlink:href="#C" transform="matrix(1,0,0,1,1387.797917082884,622.3848473951464) translate(0.49479166666666696 16.444444444444443)"/><path d="M1413.4 622.9a.5.5 0 0 1 .5-.5h37a.5.5 0 0 1 .5.5v22.95a.5.5 0 0 1-.5.5h-37a.5.5 0 0 1-.5-.5z" fill="#fff" fill-opacity="0"/><path d="M1413.9 623.35a.5.5 0 0 0-.5.5v21.03a.5.5 0 0 0 .5.5h37a.5.5 0 0 0 .5-.5v-21.03a.5.5 0 0 0-.5-.5z" stroke="#5e5e5e" fill="#fff"/><use xlink:href="#D" transform="matrix(1,0,0,1,1427.7963430474806,622.3848473951464) translate(0.49479166666666696 16.444444444444443)"/><path d="M2797.97 622.9a.5.5 0 0 1 .5-.5h37a.5.5 0 0 1 .5.5v22.95a.5.5 0 0 1-.5.5h-37a.5.5 0 0 1-.5-.5z" fill="#fff" fill-opacity="0"/><path d="M2798.47 623.35a.5.5 0 0 0-.5.5v21.03a.5.5 0 0 0 .5.5h37a.5.5 0 0 0 .5-.5v-21.03a.5.5 0 0 0-.5-.5z" stroke="#5e5e5e" fill="#fff"/><use xlink:href="#C" transform="matrix(1,0,0,1,2812.371901198832,622.3848473951464) translate(0.49479166666666696 16.444444444444443)"/><path d="M2837.97 622.9a.5.5 0 0 1 .5-.5h37a.5.5 0 0 1 .5.5v22.95a.5.5 0 0 1-.5.5h-37a.5.5 0 0 1-.5-.5z" fill="#fff" fill-opacity="0"/><path d="M2838.47 623.35a.5.5 0 0 0-.5.5v21.03a.5.5 0 0 0 .5.5h37a.5.5 0 0 0 .5-.5v-21.03a.5.5 0 0 0-.5-.5z" stroke="#5e5e5e" fill="#fff"/><use xlink:href="#D" transform="matrix(1,0,0,1,2852.370327163428,622.3848473951464) translate(0.49479166666666696 16.444444444444443)"/><path d="M1735.95 622.9a.5.5 0 0 1 .5-.5h37a.5.5 0 0 1 .5.5v22.95a.5.5 0 0 1-.5.5h-37a.5.5 0 0 1-.5-.5z" fill="#fff" fill-opacity="0"/><path d="M1736.45 623.35a.5.5 0 0 0-.5.5v21.03a.5.5 0 0 0 .5.5h37a.5.5 0 0 0 .5-.5v-21.03a.5.5 0 0 0-.5-.5z" stroke="#5e5e5e" fill="#fff"/><use xlink:href="#C" transform="matrix(1,0,0,1,1750.3506745190602,622.3848473951464) translate(0.49479166666666696 16.444444444444443)"/><path d="M1775.95 622.9a.5.5 0 0 1 .5-.5h37a.5.5 0 0 1 .5.5v22.95a.5.5 0 0 1-.5.5h-37a.5.5 0 0 1-.5-.5z" fill="#fff" fill-opacity="0"/><path d="M1776.45 623.35a.5.5 0 0 0-.5.5v21.03a.5.5 0 0 0 .5.5h37a.5.5 0 0 0 .5-.5v-21.03a.5.5 0 0 0-.5-.5z" stroke="#5e5e5e" fill="#fff"/><use xlink:href="#D" transform="matrix(1,0,0,1,1790.349100483657,622.3848473951464) translate(0.49479166666666696 16.444444444444443)"/><path d="M2757.97 715.33a.5.5 0 0 1 .5-.5h37a.5.5 0 0 1 .5.5v22.96a.5.5 0 0 1-.5.5h-37a.5.5 0 0 1-.5-.5z" fill="#fff" fill-opacity="0"/><path d="M2758.47 715.8a.5.5 0 0 0-.5.5v21.02a.5.5 0 0 0 .5.5h37a.5.5 0 0 0 .5-.5V716.3a.5.5 0 0 0-.5-.5z" stroke="#5e5e5e" fill="#fff"/><use xlink:href="#l" transform="matrix(1,0,0,1,2772.3715076899803,714.8245825671851) translate(0.49479166666666696 16.444444444444443)"/><path d="M2797.97 715.33a.5.5 0 0 1 .5-.5h37a.5.5 0 0 1 .5.5v22.96a.5.5 0 0 1-.5.5h-37a.5.5 0 0 1-.5-.5z" fill="#fff" fill-opacity="0"/><path d="M2798.47 715.8a.5.5 0 0 0-.5.5v21.02a.5.5 0 0 0 .5.5h37a.5.5 0 0 0 .5-.5V716.3a.5.5 0 0 0-.5-.5z" stroke="#5e5e5e" fill="#fff"/><use xlink:href="#m" transform="matrix(1,0,0,1,2812.3699336545765,714.8245825671851) translate(0.49479166666666696 16.444444444444443)"/><path d="M2837.97 715.33a.5.5 0 0 1 .5-.5h37a.5.5 0 0 1 .5.5v22.96a.5.5 0 0 1-.5.5h-37a.5.5 0 0 1-.5-.5z" fill="#fff" fill-opacity="0"/><path d="M2838.47 715.8a.5.5 0 0 0-.5.5v21.02a.5.5 0 0 0 .5.5h37a.5.5 0 0 0 .5-.5V716.3a.5.5 0 0 0-.5-.5z" stroke="#5e5e5e" fill="#fff"/><use xlink:href="#n" transform="matrix(1,0,0,1,2852.3722947076826,714.8245825671851) translate(0.49479166666666696 16.444444444444443)"/><path d="M2877.97 715.33a.5.5 0 0 1 .5-.5h37a.5.5 0 0 1 .5.5v22.96a.5.5 0 0 1-.5.5h-37a.5.5 0 0 1-.5-.5z" fill="#fff" fill-opacity="0"/><path d="M2878.47 715.8a.5.5 0 0 0-.5.5v21.02a.5.5 0 0 0 .5.5h37a.5.5 0 0 0 .5-.5V716.3a.5.5 0 0 0-.5-.5z" stroke="#5e5e5e" fill="#fff"/><use xlink:href="#B" transform="matrix(1,0,0,1,2892.370720672279,714.8245825671851) translate(0.49479166666666696 16.444444444444443)"/><path d="M3161.97 622.9a.5.5 0 0 1 .5-.5h37a.5.5 0 0 1 .5.5v22.95a.5.5 0 0 1-.5.5h-37a.5.5 0 0 1-.5-.5z" fill="#fff" fill-opacity="0"/><path d="M3162.47 623.35a.5.5 0 0 0-.5.5v21.03a.5.5 0 0 0 .5.5h37a.5.5 0 0 0 .5-.5v-21.03a.5.5 0 0 0-.5-.5z" stroke="#5e5e5e" fill="#fff"/><use xlink:href="#C" transform="matrix(1,0,0,1,3176.371901198832,622.3848473951464) translate(0.49479166666666696 16.444444444444443)"/><path d="M3201.97 622.9a.5.5 0 0 1 .5-.5h37a.5.5 0 0 1 .5.5v22.95a.5.5 0 0 1-.5.5h-37a.5.5 0 0 1-.5-.5z" fill="#fff" fill-opacity="0"/><path d="M3202.47 623.35a.5.5 0 0 0-.5.5v21.03a.5.5 0 0 0 .5.5h37a.5.5 0 0 0 .5-.5v-21.03a.5.5 0 0 0-.5-.5z" stroke="#5e5e5e" fill="#fff"/><use xlink:href="#D" transform="matrix(1,0,0,1,3216.370327163428,622.3848473951464) translate(0.49479166666666696 16.444444444444443)"/><path d="M2079.2 499.4c-43.05 0-77.94-36.73-77.94-82 0-36.25 21.1-66.8 53.85-78-1.9-106.5 128-127 179.95-86 25.98-61.5 155.86-41 155.86 20.5 77.94-20.5 155.87 61.5 103.9 164 51.97 82 0 184.5-103.9 143.5-25.97 53.28-129.87 53.28-155.85 0-51.95 41-155.86 20.5-155.86-82z" stroke="#979ea8" stroke-width="5" fill="#fff"/><use xlink:href="#E" transform="matrix(1,0,0,1,2006.2611482584898,217.3856567320894) translate(131.6913580246914 205.22222222222223)"/><use xlink:href="#F" transform="matrix(1,0,0,1,2006.2611482584898,217.3856567320894) translate(163.17283950617286 205.22222222222223)"/><use xlink:href="#G" transform="matrix(1,0,0,1,2006.2611482584898,217.3856567320894) translate(208.61111111111111 205.22222222222223)"/><path d="M1392.95 621.83l614-244.4" stroke="#5e5e5e" stroke-width="3" fill="none"/><path d="M1393.2 622.4h-4.87l-.12-.3 4.23-1.68zM2007.4 378.67l-1.04-2.63 3.05-1.2z" stroke="#5e5e5e" stroke-width=".05" fill="#5e5e5e"/><path d="M1433.67 621.94l567.55-178.13" stroke="#5e5e5e" stroke-width="3" fill="none"/><path d="M1433.86 622.4h-4.76l-.17-.55 4.33-1.36zM2002.44 442.72l.68 2.06-1.5.47-.9-2.86 1.5-.48z" stroke="#5e5e5e" stroke-width=".05" fill="#5e5e5e"/><path d="M1757.3 621.68l266.85-140.75" stroke="#5e5e5e" stroke-width="3" fill="none"/><path d="M1757.7 622.4h-4.95l3.87-2.06zM2026.62 481.32l-1.8.96-1.4-2.66.9-.48z" stroke="#5e5e5e" stroke-width=".05" fill="#5e5e5e"/><path d="M1794.5 621.85L2076 514.1" stroke="#5e5e5e" stroke-width="3" fill="none"/><path d="M1794.76 622.4h-4.86l-.13-.34 4.24-1.63zM2077.42 514l.14 1.1-1.07.4-1.1-2.8 1.86-.7z" stroke="#5e5e5e" stroke-width=".05" fill="#5e5e5e"/><path d="M2515.88 531.7l299.07 90.25" stroke="#5e5e5e" stroke-width="3" fill="none"/><path d="M2516.34 530.27l-.86 2.87-1.42-.43.75-2.9zM2819.7 621.82l-.18.56h-4.74l.56-1.88z" stroke="#5e5e5e" stroke-width=".05" fill="#5e5e5e"/><path d="M2514.26 472.43l337.2 149.35" stroke="#5e5e5e" stroke-width="3" fill="none"/><path d="M2514.9 471.07l-1.2 2.74-.28-.1-.2-.83-.9-2.94zM2856.2 622.23l-.08.15h-4.96l.88-2z" stroke="#5e5e5e" stroke-width=".05" fill="#5e5e5e"/><path d="M2506.72 420.56l672.77 201.4" stroke="#5e5e5e" stroke-width="3" fill="none"/><path d="M2507.2 419.13l-.87 2.88-1.6-.47.6-1.54.45-1.3zM3184.24 621.8l-.18.6h-4.74l.57-1.9z" stroke="#5e5e5e" stroke-width=".05" fill="#5e5e5e"/><path d="M2515.53 372.8L3219 621.87" stroke="#5e5e5e" stroke-width="3" fill="none"/><path d="M2516.06 371.38l-1 2.83-.94-.32-.02-3.2zM3223.75 621.97l-.14.4h-4.8l.67-1.9z" stroke="#5e5e5e" stroke-width=".05" fill="#5e5e5e"/><path d="M1054.87 937.6h122.2v45.23h-122.2z" fill="none"/><use xlink:href="#H" transform="matrix(1,0,0,1,1054.8676970430752,937.5864752617738) translate(0 29.222222222222218)"/><use xlink:href="#I" transform="matrix(1,0,0,1,1054.8676970430752,937.5864752617738) translate(82.87654320987649 29.222222222222218)"/><path d="M2002.87 937.6h122.2v45.23h-122.2z" fill="none"/><use xlink:href="#H" transform="matrix(1,0,0,1,2002.8676970430752,937.5864752617736) translate(22.839506172839577 29.222222222222218)"/><use xlink:href="#J" transform="matrix(1,0,0,1,2002.8676970430752,937.5864752617736) translate(105.71604938271606 29.222222222222218)"/><path d="M2486.87 937.6h122.2v45.23h-122.2z" fill="none"/><g><use xlink:href="#H" transform="matrix(1,0,0,1,2486.867697043075,937.5864752617737) translate(0 29.222222222222218)"/><use xlink:href="#I" transform="matrix(1,0,0,1,2486.867697043075,937.5864752617737) translate(82.87654320987649 29.222222222222218)"/></g><path d="M3428.87 937.6h122.2v45.23h-122.2z" fill="none"/><g><use xlink:href="#H" transform="matrix(1,0,0,1,3428.867697043075,937.5864752617737) translate(22.839506172839577 29.222222222222218)"/><use xlink:href="#J" transform="matrix(1,0,0,1,3428.867697043075,937.5864752617737) translate(105.71604938271606 29.222222222222218)"/></g><defs><path fill="#fff" d="M80-702c6-234 206-338 457-298 93 15 166 59 220 115-26 37-46 85-79 115-8 4-17 7-28 7-73 0-113-61-203-61-94 0-160 79-107 152 93 83 270 88 356 179 39 42 70 95 69 176C761-63 553 47 286 6 191-9 109-52 51-106c29-40 47-92 85-123 77-33 115 38 178 55 22 6 48 12 80 12 81 0 133-35 133-110 0-69-60-91-116-111C252-440 75-483 80-702" id="K"/><path fill="#fff" d="M236-180h257c2-279-3-565 3-840L323-871c-27 30-91 18-110-9l-76-104 399-346h198v1150h227V0H236v-180" id="L"/><path fill="#fff" d="M61-690h505v212H61v-212" id="M"/><path fill="#fff" d="M379-1437V0H125v-1437h254" id="N"/><path fill="#fff" d="M960-149C871-45 736 15 551 15 231 15 63-191 63-518c0-229 113-378 277-452 59-26 125-39 199-39 278 0 430 170 430 452 0 55-4 97-59 97H316c14 166 83 276 257 279 98 1 159-38 221-71 33-18 71-20 93 9zM741-612c-4-130-65-216-197-216-140 0-203 89-223 216h420" id="O"/><path fill="#fff" d="M534-1012c240 0 371 147 371 387V0c-80-7-186 24-201-53l-22-66C598-47 516 18 362 15 183 12 73-75 73-255c0-177 142-239 303-283 75-20 169-31 281-34 9-142-26-239-155-239-97 0-149 37-209 70-49 27-108 2-128-33l-46-80c103-96 231-158 415-158zM316-268c-2 80 48 110 125 110 107 0 156-41 216-100v-160c-111 5-199 15-269 48-43 21-70 49-72 102" id="P"/><path fill="#fff" d="M562-1233c-141 0-169 100-160 247h230v180H410V0H156v-806c-55-15-135-9-136-77v-103h136c-14-277 106-437 363-437 48 0 83 7 122 18l-6 127c-1 39-36 45-73 45" id="Q"/><path fill="#fff" d="M113-955c38-239 181-388 448-388 186 0 310 81 369 209 18 42 27 87 27 134 1 168-77 256-203 297 151 51 227 154 227 307C981-126 800 8 532 14 260 20 143-131 76-338c63-25 186-102 236-14 46 82 93 164 218 164 130 0 203-76 210-200 9-175-112-206-288-206v-171c158-2 269-37 269-193 0-117-60-182-173-183-99-1-165 67-190 142-19 57-44 79-118 66" id="R"/><g id="b"><use transform="matrix(0.013020833333333334,0,0,0.013020833333333334,0,0)" xlink:href="#K"/><use transform="matrix(0.013020833333333334,0,0,0.013020833333333334,10.638020833333334,0)" xlink:href="#L"/><use transform="matrix(0.013020833333333334,0,0,0.013020833333333334,24.153645833333336,0)" xlink:href="#M"/><use transform="matrix(0.013020833333333334,0,0,0.013020833333333334,32.317708333333336,0)" xlink:href="#N"/><use transform="matrix(0.013020833333333334,0,0,0.013020833333333334,38.8671875,0)" xlink:href="#O"/><use transform="matrix(0.013020833333333334,0,0,0.013020833333333334,52.29166666666667,0)" xlink:href="#P"/><use transform="matrix(0.013020833333333334,0,0,0.013020833333333334,65.3125,0)" xlink:href="#Q"/><use transform="matrix(0.013020833333333334,0,0,0.013020833333333334,73.75,0)" xlink:href="#R"/></g><filter id="a" filterUnits="objectBoundingBox" x="-.06" y="-.04" width="1.12" height="1.21"><feOffset result="offOut" in="SourceAlpha" dy="6"/><feGaussianBlur result="blurOut" in="offOut" stdDeviation="5"/><feColorMatrix result="colorOut" in="blurOut" values="0 0 0 0 0 0 0 0 0 0 0 0 0 0 0 0 0 0 0.5019607843137255 0"/><feBlend in="SourceGraphic" in2="colorOut"/></filter><path fill="#fff" d="M1007-505c-9 70 29 185-49 186H854V0H644v-319H105c-83-4-69-108-90-173l609-837h230v824h153zm-363 0c3-182-8-376 8-546L269-505h375" id="S"/><g id="c"><use transform="matrix(0.013020833333333334,0,0,0.013020833333333334,0,0)" xlink:href="#K"/><use transform="matrix(0.013020833333333334,0,0,0.013020833333333334,10.638020833333334,0)" xlink:href="#L"/><use transform="matrix(0.013020833333333334,0,0,0.013020833333333334,24.153645833333336,0)" xlink:href="#M"/><use transform="matrix(0.013020833333333334,0,0,0.013020833333333334,32.317708333333336,0)" xlink:href="#N"/><use transform="matrix(0.013020833333333334,0,0,0.013020833333333334,38.8671875,0)" xlink:href="#O"/><use transform="matrix(0.013020833333333334,0,0,0.013020833333333334,52.29166666666667,0)" xlink:href="#P"/><use transform="matrix(0.013020833333333334,0,0,0.013020833333333334,65.3125,0)" xlink:href="#Q"/><use transform="matrix(0.013020833333333334,0,0,0.013020833333333334,73.75,0)" xlink:href="#S"/></g><g id="d"><use transform="matrix(0.013020833333333334,0,0,0.013020833333333334,0,0)" xlink:href="#K"/><use transform="matrix(0.013020833333333334,0,0,0.013020833333333334,10.638020833333334,0)" xlink:href="#L"/><use transform="matrix(0.013020833333333334,0,0,0.013020833333333334,24.153645833333336,0)" xlink:href="#M"/><use transform="matrix(0.013020833333333334,0,0,0.013020833333333334,32.317708333333336,0)" xlink:href="#N"/><use transform="matrix(0.013020833333333334,0,0,0.013020833333333334,38.8671875,0)" xlink:href="#O"/><use transform="matrix(0.013020833333333334,0,0,0.013020833333333334,52.29166666666667,0)" xlink:href="#P"/><use transform="matrix(0.013020833333333334,0,0,0.013020833333333334,65.3125,0)" xlink:href="#Q"/><use transform="matrix(0.013020833333333334,0,0,0.013020833333333334,73.75,0)" xlink:href="#L"/></g><path fill="#fff" d="M89-955c40-238 181-388 449-388 250 0 409 134 409 381 0 232-139 347-258 472L407-195c126-46 310-24 475-29 49-1 86 32 85 80V0H69c-2-76 0-138 43-180 161-160 326-321 472-494 63-74 110-153 115-281 6-143-107-217-242-175-61 19-100 69-121 131-19 56-46 79-119 66" id="T"/><g id="e"><use transform="matrix(0.013020833333333334,0,0,0.013020833333333334,0,0)" xlink:href="#K"/><use transform="matrix(0.013020833333333334,0,0,0.013020833333333334,10.638020833333334,0)" xlink:href="#L"/><use transform="matrix(0.013020833333333334,0,0,0.013020833333333334,24.153645833333336,0)" xlink:href="#M"/><use transform="matrix(0.013020833333333334,0,0,0.013020833333333334,32.317708333333336,0)" xlink:href="#N"/><use transform="matrix(0.013020833333333334,0,0,0.013020833333333334,38.8671875,0)" xlink:href="#O"/><use transform="matrix(0.013020833333333334,0,0,0.013020833333333334,52.29166666666667,0)" xlink:href="#P"/><use transform="matrix(0.013020833333333334,0,0,0.013020833333333334,65.3125,0)" xlink:href="#Q"/><use transform="matrix(0.013020833333333334,0,0,0.013020833333333334,73.75,0)" xlink:href="#T"/></g><path d="M236-180h257c2-279-3-565 3-840L323-871c-27 30-91 18-110-9l-76-104 399-346h198v1150h227V0H236v-180" id="U"/><use transform="matrix(0.008680555555555554,0,0,0.008680555555555554,0,0)" xlink:href="#U" id="f"/><path d="M456-845c80-38 203-43 294-6 146 60 243 188 243 393 0 223-117 364-277 436-109 49-273 49-382 1C168-93 67-246 67-479c0-175 67-295 150-418l300-442c25-33 77-59 136-59h226c-141 184-282 368-423 553zm64 158c-139 0-209 104-209 247 0 149 63 249 209 249 141 0 219-103 219-248 0-149-72-248-219-248" id="V"/><use transform="matrix(0.008680555555555554,0,0,0.008680555555555554,0,0)" xlink:href="#V" id="g"/><path fill="#fff" d="M615 15c-112 0-178-37-238-91v398H123V-993c65 5 149-11 197 11 31 24 28 81 42 121 74-81 161-151 314-151 265 0 360 229 360 508 0 232-93 399-248 480-52 26-109 39-173 39zm159-519c0-165-29-307-185-307-108 0-158 47-212 111v440c43 53 94 83 178 83 171 0 219-146 219-327" id="W"/><path fill="#fff" d="M379-993V0H125v-993h254zm-132-444c97 0 163 62 163 159 0 96-66 158-163 158-94 0-157-63-157-158s62-159 157-159" id="X"/><path fill="#fff" d="M582-811c-92 1-152 44-204 95V0H124v-993c65 5 150-14 196 11 30 17 27 71 39 107 74-72 158-134 301-134 225 0 332 151 332 377V0H738v-632c0-109-49-180-156-179" id="Y"/><g id="i"><use transform="matrix(0.013020833333333334,0,0,0.013020833333333334,0,0)" xlink:href="#K"/><use transform="matrix(0.013020833333333334,0,0,0.013020833333333334,10.638020833333334,0)" xlink:href="#L"/><use transform="matrix(0.013020833333333334,0,0,0.013020833333333334,24.153645833333336,0)" xlink:href="#M"/><use transform="matrix(0.013020833333333334,0,0,0.013020833333333334,32.317708333333336,0)" xlink:href="#K"/><use transform="matrix(0.013020833333333334,0,0,0.013020833333333334,42.95572916666667,0)" xlink:href="#W"/><use transform="matrix(0.013020833333333334,0,0,0.013020833333333334,57.265625,0)" xlink:href="#X"/><use transform="matrix(0.013020833333333334,0,0,0.013020833333333334,63.81510416666667,0)" xlink:href="#Y"/><use transform="matrix(0.013020833333333334,0,0,0.013020833333333334,78.125,0)" xlink:href="#O"/><use transform="matrix(0.013020833333333334,0,0,0.013020833333333334,91.54947916666667,0)" xlink:href="#L"/></g><filter id="h" filterUnits="objectBoundingBox" x="-.04" y="-.04" width="1.08" height="1.21"><feOffset result="offOut" in="SourceAlpha" dy="6"/><feGaussianBlur result="blurOut" in="offOut" stdDeviation="5"/><feColorMatrix result="colorOut" in="blurOut" values="0 0 0 0 0 0 0 0 0 0 0 0 0 0 0 0 0 0 0.5019607843137255 0"/><feBlend in="SourceGraphic" in2="colorOut"/></filter><g id="k"><use transform="matrix(0.013020833333333334,0,0,0.013020833333333334,0,0)" xlink:href="#K"/><use transform="matrix(0.013020833333333334,0,0,0.013020833333333334,10.638020833333334,0)" xlink:href="#L"/><use transform="matrix(0.013020833333333334,0,0,0.013020833333333334,24.153645833333336,0)" xlink:href="#M"/><use transform="matrix(0.013020833333333334,0,0,0.013020833333333334,32.317708333333336,0)" xlink:href="#K"/><use transform="matrix(0.013020833333333334,0,0,0.013020833333333334,42.95572916666667,0)" xlink:href="#W"/><use transform="matrix(0.013020833333333334,0,0,0.013020833333333334,57.265625,0)" xlink:href="#X"/><use transform="matrix(0.013020833333333334,0,0,0.013020833333333334,63.81510416666667,0)" xlink:href="#Y"/><use transform="matrix(0.013020833333333334,0,0,0.013020833333333334,78.125,0)" xlink:href="#O"/><use transform="matrix(0.013020833333333334,0,0,0.013020833333333334,91.54947916666667,0)" xlink:href="#T"/></g><filter id="j" filterUnits="objectBoundingBox" x="-.04" y="-.04" width="1.08" height="1.21"><feOffset result="offOut" in="SourceAlpha" dy="6"/><feGaussianBlur result="blurOut" in="offOut" stdDeviation="5"/><feColorMatrix result="colorOut" in="blurOut" values="0 0 0 0 0 0 0 0 0 0 0 0 0 0 0 0 0 0 0.5019607843137255 0"/><feBlend in="SourceGraphic" in2="colorOut"/></filter><path d="M89-955c40-238 181-388 449-388 250 0 409 134 409 381 0 232-139 347-258 472L407-195c126-46 310-24 475-29 49-1 86 32 85 80V0H69c-2-76 0-138 43-180 161-160 326-321 472-494 63-74 110-153 115-281 6-143-107-217-242-175-61 19-100 69-121 131-19 56-46 79-119 66" id="Z"/><use transform="matrix(0.008680555555555554,0,0,0.008680555555555554,0,0)" xlink:href="#Z" id="l"/><path d="M113-955c38-239 181-388 448-388 186 0 310 81 369 209 18 42 27 87 27 134 1 168-77 256-203 297 151 51 227 154 227 307C981-126 800 8 532 14 260 20 143-131 76-338c63-25 186-102 236-14 46 82 93 164 218 164 130 0 203-76 210-200 9-175-112-206-288-206v-171c158-2 269-37 269-193 0-117-60-182-173-183-99-1-165 67-190 142-19 57-44 79-118 66" id="aa"/><use transform="matrix(0.008680555555555554,0,0,0.008680555555555554,0,0)" xlink:href="#aa" id="m"/><path d="M1007-505c-9 70 29 185-49 186H854V0H644v-319H105c-83-4-69-108-90-173l609-837h230v824h153zm-363 0c3-182-8-376 8-546L269-505h375" id="ab"/><use transform="matrix(0.008680555555555554,0,0,0.008680555555555554,0,0)" xlink:href="#ab" id="n"/><path fill="#fff" d="M583-811c-92 1-152 44-204 95V0H125v-1437h254v544c73-64 150-119 282-116 225 4 332 151 332 377V0H739v-632c0-109-49-180-156-179" id="ac"/><path fill="#fff" d="M352-974c116-47 283-48 399 0 177 72 288 230 288 475 0 247-110 405-288 478-116 48-283 48-399 0C173-94 62-251 62-499c0-246 112-403 290-475zm-28 477c0 189 54 318 228 318 172 0 225-131 225-318s-53-318-225-318c-174 0-228 130-228 318" id="ad"/><path fill="#fff" d="M680-72c-61 52-150 86-256 87-172 2-267-108-267-279v-542c-63-2-138 16-138-53v-101l151-29 53-262c11-66 119-33 188-41v306h245v180H411v525c0 54 23 90 73 93 51 3 85-62 119-7" id="ae"/><g id="o"><use transform="matrix(0.013020833333333334,0,0,0.013020833333333334,0,0)" xlink:href="#K"/><use transform="matrix(0.013020833333333334,0,0,0.013020833333333334,10.638020833333334,0)" xlink:href="#L"/><use transform="matrix(0.013020833333333334,0,0,0.013020833333333334,24.153645833333336,0)" xlink:href="#M"/><use transform="matrix(0.013020833333333334,0,0,0.013020833333333334,32.317708333333336,0)" xlink:href="#ac"/><use transform="matrix(0.013020833333333334,0,0,0.013020833333333334,46.62760416666667,0)" xlink:href="#ad"/><use transform="matrix(0.013020833333333334,0,0,0.013020833333333334,60.96354166666667,0)" xlink:href="#K"/><use transform="matrix(0.013020833333333334,0,0,0.013020833333333334,71.30208333333334,0)" xlink:href="#ae"/><use transform="matrix(0.013020833333333334,0,0,0.013020833333333334,80.54687500000001,0)" xlink:href="#L"/></g><g id="p"><use transform="matrix(0.013020833333333334,0,0,0.013020833333333334,0,0)" xlink:href="#K"/><use transform="matrix(0.013020833333333334,0,0,0.013020833333333334,10.638020833333334,0)" xlink:href="#L"/><use transform="matrix(0.013020833333333334,0,0,0.013020833333333334,24.153645833333336,0)" xlink:href="#M"/><use transform="matrix(0.013020833333333334,0,0,0.013020833333333334,32.317708333333336,0)" xlink:href="#ac"/><use transform="matrix(0.013020833333333334,0,0,0.013020833333333334,46.62760416666667,0)" xlink:href="#ad"/><use transform="matrix(0.013020833333333334,0,0,0.013020833333333334,60.96354166666667,0)" xlink:href="#K"/><use transform="matrix(0.013020833333333334,0,0,0.013020833333333334,71.30208333333334,0)" xlink:href="#ae"/><use transform="matrix(0.013020833333333334,0,0,0.013020833333333334,80.54687500000001,0)" xlink:href="#T"/></g><path fill="#979ea8" d="M169-182c-1-43-94-46-97-3 18 66 151 10 154 114 3 95-165 93-204 36-6-8-10-19-12-30l50-8c3 46 112 56 116 5-17-69-150-10-154-114-4-87 153-88 188-35 5 8 8 18 10 28" id="af"/><path fill="#979ea8" d="M25-224v-37h50v37H25zM25 0v-190h50V0H25" id="ag"/><path fill="#979ea8" d="M115-3C79 11 28 4 28-45v-112H4v-33h27l15-45h31v45h36v33H77v99c-1 23 16 31 38 25v30" id="ah"/><path fill="#979ea8" d="M185-48c-13 30-37 53-82 52C43 2 14-33 14-96s30-98 90-98c62 0 83 45 84 108H66c0 31 8 55 39 56 18 0 30-7 34-22zm-45-69c5-46-57-63-70-21-2 6-4 13-4 21h74" id="ai"/><g id="q"><use transform="matrix(0.12345679012345674,0,0,0.12345679012345674,0,0)" xlink:href="#af"/><use transform="matrix(0.12345679012345674,0,0,0.12345679012345674,29.62962962962962,0)" xlink:href="#ag"/><use transform="matrix(0.12345679012345674,0,0,0.12345679012345674,41.97530864197529,0)" xlink:href="#ah"/><use transform="matrix(0.12345679012345674,0,0,0.12345679012345674,56.66666666666664,0)" xlink:href="#ai"/></g><path fill="#979ea8" d="M23 0v-37h61v-169l-59 37v-38l62-41h46v211h57V0H23" id="aj"/><use transform="matrix(0.12345679012345674,0,0,0.12345679012345674,0,0)" xlink:href="#aj" id="r"/><g id="s"><use transform="matrix(0.013020833333333334,0,0,0.013020833333333334,0,0)" xlink:href="#K"/><use transform="matrix(0.013020833333333334,0,0,0.013020833333333334,10.638020833333334,0)" xlink:href="#T"/><use transform="matrix(0.013020833333333334,0,0,0.013020833333333334,24.153645833333336,0)" xlink:href="#M"/><use transform="matrix(0.013020833333333334,0,0,0.013020833333333334,32.317708333333336,0)" xlink:href="#N"/><use transform="matrix(0.013020833333333334,0,0,0.013020833333333334,38.8671875,0)" xlink:href="#O"/><use transform="matrix(0.013020833333333334,0,0,0.013020833333333334,52.29166666666667,0)" xlink:href="#P"/><use transform="matrix(0.013020833333333334,0,0,0.013020833333333334,65.3125,0)" xlink:href="#Q"/><use transform="matrix(0.013020833333333334,0,0,0.013020833333333334,73.75,0)" xlink:href="#R"/></g><g id="t"><use transform="matrix(0.013020833333333334,0,0,0.013020833333333334,0,0)" xlink:href="#K"/><use transform="matrix(0.013020833333333334,0,0,0.013020833333333334,10.638020833333334,0)" xlink:href="#T"/><use transform="matrix(0.013020833333333334,0,0,0.013020833333333334,24.153645833333336,0)" xlink:href="#M"/><use transform="matrix(0.013020833333333334,0,0,0.013020833333333334,32.317708333333336,0)" xlink:href="#N"/><use transform="matrix(0.013020833333333334,0,0,0.013020833333333334,38.8671875,0)" xlink:href="#O"/><use transform="matrix(0.013020833333333334,0,0,0.013020833333333334,52.29166666666667,0)" xlink:href="#P"/><use transform="matrix(0.013020833333333334,0,0,0.013020833333333334,65.3125,0)" xlink:href="#Q"/><use transform="matrix(0.013020833333333334,0,0,0.013020833333333334,73.75,0)" xlink:href="#S"/></g><g id="u"><use transform="matrix(0.013020833333333334,0,0,0.013020833333333334,0,0)" xlink:href="#K"/><use transform="matrix(0.013020833333333334,0,0,0.013020833333333334,10.638020833333334,0)" xlink:href="#T"/><use transform="matrix(0.013020833333333334,0,0,0.013020833333333334,24.153645833333336,0)" xlink:href="#M"/><use transform="matrix(0.013020833333333334,0,0,0.013020833333333334,32.317708333333336,0)" xlink:href="#N"/><use transform="matrix(0.013020833333333334,0,0,0.013020833333333334,38.8671875,0)" xlink:href="#O"/><use transform="matrix(0.013020833333333334,0,0,0.013020833333333334,52.29166666666667,0)" xlink:href="#P"/><use transform="matrix(0.013020833333333334,0,0,0.013020833333333334,65.3125,0)" xlink:href="#Q"/><use transform="matrix(0.013020833333333334,0,0,0.013020833333333334,73.75,0)" xlink:href="#L"/></g><g id="v"><use transform="matrix(0.013020833333333334,0,0,0.013020833333333334,0,0)" xlink:href="#K"/><use transform="matrix(0.013020833333333334,0,0,0.013020833333333334,10.638020833333334,0)" xlink:href="#T"/><use transform="matrix(0.013020833333333334,0,0,0.013020833333333334,24.153645833333336,0)" xlink:href="#M"/><use transform="matrix(0.013020833333333334,0,0,0.013020833333333334,32.317708333333336,0)" xlink:href="#N"/><use transform="matrix(0.013020833333333334,0,0,0.013020833333333334,38.8671875,0)" xlink:href="#O"/><use transform="matrix(0.013020833333333334,0,0,0.013020833333333334,52.29166666666667,0)" xlink:href="#P"/><use transform="matrix(0.013020833333333334,0,0,0.013020833333333334,65.3125,0)" xlink:href="#Q"/><use transform="matrix(0.013020833333333334,0,0,0.013020833333333334,73.75,0)" xlink:href="#T"/></g><g id="w"><use transform="matrix(0.013020833333333334,0,0,0.013020833333333334,0,0)" xlink:href="#K"/><use transform="matrix(0.013020833333333334,0,0,0.013020833333333334,10.638020833333334,0)" xlink:href="#T"/><use transform="matrix(0.013020833333333334,0,0,0.013020833333333334,24.153645833333336,0)" xlink:href="#M"/><use transform="matrix(0.013020833333333334,0,0,0.013020833333333334,32.317708333333336,0)" xlink:href="#K"/><use transform="matrix(0.013020833333333334,0,0,0.013020833333333334,42.95572916666667,0)" xlink:href="#W"/><use transform="matrix(0.013020833333333334,0,0,0.013020833333333334,57.265625,0)" xlink:href="#X"/><use transform="matrix(0.013020833333333334,0,0,0.013020833333333334,63.81510416666667,0)" xlink:href="#Y"/><use transform="matrix(0.013020833333333334,0,0,0.013020833333333334,78.125,0)" xlink:href="#O"/><use transform="matrix(0.013020833333333334,0,0,0.013020833333333334,91.54947916666667,0)" xlink:href="#L"/></g><g id="x"><use transform="matrix(0.013020833333333334,0,0,0.013020833333333334,0,0)" xlink:href="#K"/><use transform="matrix(0.013020833333333334,0,0,0.013020833333333334,10.638020833333334,0)" xlink:href="#T"/><use transform="matrix(0.013020833333333334,0,0,0.013020833333333334,24.153645833333336,0)" xlink:href="#M"/><use transform="matrix(0.013020833333333334,0,0,0.013020833333333334,32.317708333333336,0)" xlink:href="#K"/><use transform="matrix(0.013020833333333334,0,0,0.013020833333333334,42.95572916666667,0)" xlink:href="#W"/><use transform="matrix(0.013020833333333334,0,0,0.013020833333333334,57.265625,0)" xlink:href="#X"/><use transform="matrix(0.013020833333333334,0,0,0.013020833333333334,63.81510416666667,0)" xlink:href="#Y"/><use transform="matrix(0.013020833333333334,0,0,0.013020833333333334,78.125,0)" xlink:href="#O"/><use transform="matrix(0.013020833333333334,0,0,0.013020833333333334,91.54947916666667,0)" xlink:href="#T"/></g><g id="y"><use transform="matrix(0.013020833333333334,0,0,0.013020833333333334,0,0)" xlink:href="#K"/><use transform="matrix(0.013020833333333334,0,0,0.013020833333333334,10.638020833333334,0)" xlink:href="#T"/><use transform="matrix(0.013020833333333334,0,0,0.013020833333333334,24.153645833333336,0)" xlink:href="#M"/><use transform="matrix(0.013020833333333334,0,0,0.013020833333333334,32.317708333333336,0)" xlink:href="#ac"/><use transform="matrix(0.013020833333333334,0,0,0.013020833333333334,46.62760416666667,0)" xlink:href="#ad"/><use transform="matrix(0.013020833333333334,0,0,0.013020833333333334,60.96354166666667,0)" xlink:href="#K"/><use transform="matrix(0.013020833333333334,0,0,0.013020833333333334,71.30208333333334,0)" xlink:href="#ae"/><use transform="matrix(0.013020833333333334,0,0,0.013020833333333334,80.54687500000001,0)" xlink:href="#L"/></g><g id="z"><use transform="matrix(0.013020833333333334,0,0,0.013020833333333334,0,0)" xlink:href="#K"/><use transform="matrix(0.013020833333333334,0,0,0.013020833333333334,10.638020833333334,0)" xlink:href="#T"/><use transform="matrix(0.013020833333333334,0,0,0.013020833333333334,24.153645833333336,0)" xlink:href="#M"/><use transform="matrix(0.013020833333333334,0,0,0.013020833333333334,32.317708333333336,0)" xlink:href="#ac"/><use transform="matrix(0.013020833333333334,0,0,0.013020833333333334,46.62760416666667,0)" xlink:href="#ad"/><use transform="matrix(0.013020833333333334,0,0,0.013020833333333334,60.96354166666667,0)" xlink:href="#K"/><use transform="matrix(0.013020833333333334,0,0,0.013020833333333334,71.30208333333334,0)" xlink:href="#ae"/><use transform="matrix(0.013020833333333334,0,0,0.013020833333333334,80.54687500000001,0)" xlink:href="#T"/></g><path fill="#979ea8" d="M182-182c0 78-84 86-111 141h115V0H12c-6-101 99-100 120-180 1-22-12-31-33-32-23 0-32 14-35 34l-49-3c5-45 32-70 84-70 51 0 83 22 83 69" id="ak"/><use transform="matrix(0.12345679012345674,0,0,0.12345679012345674,0,0)" xlink:href="#ak" id="A"/><path d="M463-670c-69 0-128 14-183 34l-149-41 108-651h650v101c-3 78-52 116-142 116H407l-44 261c53-11 103-16 152-16 263 0 419 147 419 406 0 232-122 371-292 440-125 51-309 39-418-14-62-30-119-68-165-112l74-102c44-65 117-14 161 14 42 27 94 49 166 47 158-4 231-103 233-261 2-143-84-223-230-222" id="al"/><use transform="matrix(0.008680555555555554,0,0,0.008680555555555554,0,0)" xlink:href="#al" id="B"/><path d="M137-1111c-27 1-55-27-55-55v-162h902c1 84-3 171-29 226L478-82C454-38 420 0 351 0H175l488-997c23-44 44-80 76-114H137" id="am"/><use transform="matrix(0.008680555555555554,0,0,0.008680555555555554,0,0)" xlink:href="#am" id="C"/><path d="M977-395c0 272-183 410-458 410S61-123 61-395c0-179 82-285 228-334-115-51-185-151-185-308 0-185 109-293 248-348 99-39 235-39 334 0 140 55 248 162 248 348 0 158-70 257-186 308 146 49 229 155 229 334zm-654-4c0 133 63 217 196 217s196-84 196-217c0-142-55-224-196-224-140 0-196 84-196 224zm28-633c0 123 44 210 168 210 123 0 168-87 168-210 0-114-53-191-168-191s-168 77-168 191" id="an"/><use transform="matrix(0.008680555555555554,0,0,0.008680555555555554,0,0)" xlink:href="#an" id="D"/><path fill="#979ea8" d="M24 0v-248h52V0H24" id="ao"/><path fill="#979ea8" d="M24-248c93 1 206-16 204 79-1 75-69 88-152 82V0H24v-248zm52 121c47 0 100 7 100-41 0-47-54-39-100-39v80" id="ap"/><g id="F"><use transform="matrix(0.10493827160493824,0,0,0.10493827160493824,0,0)" xlink:href="#ao"/><use transform="matrix(0.10493827160493824,0,0,0.10493827160493824,10.493827160493824,0)" xlink:href="#ap"/></g><path fill="#979ea8" d="M175 0L67-191c6 58 2 128 3 191H24v-248h59L193-55c-6-58-2-129-3-193h46V0h-61" id="aq"/><path fill="#979ea8" d="M231 0h-52l-39-155L100 0H48L-1-190h46L77-45c9-52 24-97 36-145h53l37 145 32-145h46" id="ar"/><path fill="#979ea8" d="M110-194c64 0 96 36 96 99 0 64-35 99-97 99-61 0-95-36-95-99 0-62 34-99 96-99zm-1 164c35 0 45-28 45-65 0-40-10-65-43-65-34 0-45 26-45 65 0 36 10 65 43 65" id="as"/><path fill="#979ea8" d="M135-150c-39-12-60 13-60 57V0H25l-1-190h47c2 13-1 29 3 40 6-28 27-53 61-41v41" id="at"/><path fill="#979ea8" d="M147 0L96-86 75-71V0H25v-261h50v150l67-79h53l-66 74L201 0h-54" id="au"/><g id="G"><use transform="matrix(0.10493827160493824,0,0,0.10493827160493824,0,0)" xlink:href="#aq"/><use transform="matrix(0.10493827160493824,0,0,0.10493827160493824,27.179012345679002,0)" xlink:href="#ai"/><use transform="matrix(0.10493827160493824,0,0,0.10493827160493824,48.16666666666665,0)" xlink:href="#ah"/><use transform="matrix(0.10493827160493824,0,0,0.10493827160493824,60.6543209876543,0)" xlink:href="#ar"/><use transform="matrix(0.10493827160493824,0,0,0.10493827160493824,90.03703703703701,0)" xlink:href="#as"/><use transform="matrix(0.10493827160493824,0,0,0.10493827160493824,113.01851851851848,0)" xlink:href="#at"/><use transform="matrix(0.10493827160493824,0,0,0.10493827160493824,127.70987654320983,0)" xlink:href="#au"/></g><path fill="#979ea8" d="M240-174c0 40-23 61-54 70L253 0h-59l-57-94H76V0H24v-248c93 4 217-23 216 74zM76-134c48-2 112 12 112-38 0-48-66-32-112-35v73" id="av"/><path fill="#979ea8" d="M133-34C117-15 103 5 69 4 32 3 11-16 11-54c-1-60 55-63 116-61 1-26-3-47-28-47-18 1-26 9-28 27l-52-2c7-38 36-58 82-57s74 22 75 68l1 82c-1 14 12 18 25 15v27c-30 8-71 5-69-32zm-48 3c29 0 43-24 42-57-32 0-66-3-65 30 0 17 8 27 23 27" id="aw"/><path fill="#979ea8" d="M190-63c-7 42-38 67-86 67-59 0-84-38-90-98-12-110 154-137 174-36l-49 2c-2-19-15-32-35-32-30 0-35 28-38 64-6 74 65 87 74 30" id="ax"/><g id="H"><use transform="matrix(0.08641975308641969,0,0,0.08641975308641969,0,0)" xlink:href="#av"/><use transform="matrix(0.08641975308641969,0,0,0.08641975308641969,22.3827160493827,0)" xlink:href="#aw"/><use transform="matrix(0.08641975308641969,0,0,0.08641975308641969,39.66666666666664,0)" xlink:href="#ax"/><use transform="matrix(0.08641975308641969,0,0,0.08641975308641969,56.95061728395058,0)" xlink:href="#au"/></g><use transform="matrix(0.08641975308641969,0,0,0.08641975308641969,0,0)" xlink:href="#aj" id="I"/><use transform="matrix(0.08641975308641969,0,0,0.08641975308641969,0,0)" xlink:href="#ak" id="J"/></defs></g></svg>