<?xml version="1.0" standalone="no"?>
<!DOCTYPE svg PUBLIC "-//W3C//DTD SVG 20010904//EN"
 "http://www.w3.org/TR/2001/REC-SVG-20010904/DTD/svg10.dtd">
<svg version="1.0" xmlns="http://www.w3.org/2000/svg"
 width="512.000000pt" height="512.000000pt" viewBox="0 0 512.000000 512.000000"
 preserveAspectRatio="xMidYMid meet">

<g transform="translate(0.000000,512.000000) scale(0.100000,-0.100000)"
fill="#000000" stroke="none">
<path d="M1992 5097 c-60 -64 -77 -247 -43 -472 28 -185 33 -201 90 -278 57
-78 110 -180 173 -332 65 -156 71 -187 46 -244 -61 -142 -88 -306 -67 -403 22
-106 128 -214 240 -245 l59 -16 -39 -34 c-50 -42 -128 -145 -153 -200 -21 -48
-24 -50 -50 -26 -14 12 -34 17 -67 15 -41 -2 -54 3 -89 31 -78 62 -160 181
-313 455 -127 227 -146 253 -202 290 -23 14 -67 48 -98 74 -31 26 -61 48 -67
48 -6 0 -25 20 -43 45 -18 25 -39 43 -45 41 -15 -6 -48 44 -69 105 -24 66 -98
129 -153 129 -40 0 -92 -25 -92 -44 0 -8 16 -17 38 -20 48 -9 92 -26 92 -37 0
-16 76 -114 124 -160 27 -25 46 -51 43 -56 -4 -6 16 -26 43 -44 27 -19 50 -39
50 -45 0 -10 73 -63 125 -90 11 -6 49 -69 85 -140 106 -208 267 -449 384 -572
61 -65 165 -140 204 -148 28 -6 29 -8 24 -52 -2 -26 -8 -51 -12 -55 -4 -5 -38
12 -75 37 -84 56 -180 97 -310 130 -112 29 -196 34 -215 11 -21 -25 -76 -147
-108 -240 -17 -49 -58 -191 -92 -315 -118 -437 -137 -491 -198 -567 -30 -38
-59 -78 -64 -89 -6 -12 -21 -27 -33 -34 -13 -7 -31 -30 -41 -51 -9 -22 -23
-39 -30 -39 -43 0 -130 -131 -118 -177 8 -30 20 -29 38 5 16 30 64 62 84 55
19 -7 49 24 62 62 6 18 22 37 36 43 13 7 34 28 45 47 12 20 30 40 41 46 28 15
58 69 58 107 0 21 5 32 14 32 26 0 44 29 56 88 19 88 60 214 158 483 91 248
132 378 132 417 0 30 11 33 76 21 39 -7 83 -26 129 -54 39 -24 116 -59 173
-79 56 -19 119 -49 140 -65 20 -16 47 -32 58 -35 14 -4 24 -18 28 -38 9 -44
-27 -78 -136 -133 -169 -84 -337 -227 -383 -327 -27 -59 -28 -26 6 -467 10
-139 19 -346 19 -460 l0 -206 -35 -44 c-19 -24 -40 -62 -47 -85 -6 -23 -27
-58 -45 -79 -18 -21 -33 -48 -33 -62 0 -17 -10 -32 -35 -47 -66 -42 -119 -186
-80 -218 12 -10 17 -5 29 25 19 44 55 76 77 69 21 -6 55 36 65 79 3 18 22 49
40 70 19 20 34 44 34 53 0 9 16 31 35 49 29 26 38 44 49 95 9 48 18 66 34 73
25 11 26 17 10 72 -6 24 -13 212 -18 480 -5 366 -9 448 -23 489 l-16 50 39 37
c21 20 99 69 174 109 92 49 157 93 206 136 39 35 74 64 78 64 4 0 24 -39 44
-86 36 -85 36 -86 21 -131 -9 -27 -14 -64 -11 -93 5 -48 4 -48 -36 -71 -159
-88 -270 -229 -317 -405 -26 -92 -30 -294 -10 -404 32 -174 156 -504 225 -598
18 -26 48 -74 65 -107 67 -126 139 -227 234 -327 22 -23 72 -23 95 0 94 100
166 201 233 327 17 33 47 81 65 107 69 93 192 422 225 598 21 108 16 311 -10
404 -47 176 -158 317 -317 405 -40 23 -41 23 -36 71 3 29 -2 66 -11 93 -15 45
-15 46 21 131 20 47 40 86 44 86 4 0 39 -29 78 -64 49 -43 114 -87 206 -136
75 -40 153 -89 174 -109 l39 -37 -16 -50 c-14 -41 -18 -122 -23 -494 -5 -293
-11 -457 -18 -480 -16 -48 -15 -56 10 -67 16 -7 25 -25 34 -73 11 -51 20 -69
49 -95 19 -18 35 -40 35 -49 0 -9 15 -33 34 -54 19 -20 39 -55 45 -78 12 -45
41 -77 62 -70 20 8 57 -27 74 -68 16 -39 29 -45 39 -20 20 52 -30 175 -83 207
-20 11 -34 31 -40 54 -6 20 -23 50 -39 67 -16 17 -34 49 -40 72 -7 23 -28 61
-47 85 l-35 44 0 200 c0 110 7 290 15 400 36 473 36 474 10 532 -45 100 -213
244 -383 328 -109 55 -145 89 -136 133 4 20 14 34 28 38 11 3 38 19 58 35 21
16 84 46 140 65 57 20 135 55 173 79 46 28 90 47 129 54 64 12 76 9 76 -18 0
-40 46 -186 138 -438 86 -233 111 -310 163 -505 7 -28 16 -39 34 -44 20 -5 25
-13 25 -38 0 -36 30 -90 58 -105 11 -6 29 -26 41 -46 11 -19 32 -40 45 -47 14
-6 30 -25 36 -43 13 -38 43 -69 62 -62 20 7 68 -25 84 -55 17 -34 30 -36 37
-6 12 44 -42 135 -103 173 -20 13 -42 37 -49 53 -7 16 -23 35 -36 42 -12 7
-27 22 -33 34 -5 11 -34 51 -64 89 -61 76 -81 133 -198 567 -34 124 -75 266
-92 315 -32 93 -87 215 -108 240 -19 23 -103 18 -215 -11 -130 -33 -226 -74
-310 -130 -72 -49 -85 -47 -85 8 0 14 -2 33 -6 41 -3 10 4 16 26 20 41 9 144
83 206 149 121 129 279 365 384 573 54 107 71 133 98 146 52 26 112 71 112 83
0 6 23 26 50 45 27 18 47 38 43 44 -3 5 16 31 43 56 48 46 124 144 124 160 0
11 44 28 93 37 21 3 37 12 37 20 0 19 -52 44 -92 44 -55 0 -129 -63 -153 -129
-21 -61 -54 -111 -69 -105 -6 2 -27 -16 -45 -41 -18 -25 -37 -45 -43 -45 -6 0
-36 -22 -67 -48 -31 -26 -75 -60 -98 -74 -57 -37 -75 -63 -203 -292 -149 -266
-226 -378 -313 -453 -33 -29 -44 -33 -87 -31 -34 2 -54 -3 -68 -15 -26 -24
-29 -22 -50 26 -24 53 -100 154 -151 200 l-38 34 57 16 c111 31 217 140 239
245 21 97 -6 261 -67 403 -25 57 -19 88 46 244 63 152 116 254 173 332 57 77
62 93 90 278 34 225 17 408 -43 472 -26 28 -52 29 -78 3 -27 -27 -26 -64 6
-246 17 -96 26 -192 27 -270 l2 -121 -47 -70 c-60 -91 -89 -149 -158 -313 -49
-118 -59 -135 -81 -137 -32 -3 -85 62 -94 116 -4 26 -15 45 -36 60 -30 23 -34
21 -41 -24 -3 -18 -11 -20 -68 -20 -57 0 -65 2 -68 20 -7 45 -11 47 -41 24
-21 -15 -32 -34 -36 -60 -9 -54 -62 -119 -94 -116 -22 2 -32 19 -81 137 -68
162 -87 201 -154 305 l-51 80 2 120 c1 77 10 173 27 269 32 182 33 219 6 246
-26 26 -52 25 -78 -3z"/>
</g>
</svg>
