<?xml version="1.0" standalone="no"?>
<!DOCTYPE svg PUBLIC "-//W3C//DTD SVG 20010904//EN"
 "http://www.w3.org/TR/2001/REC-SVG-20010904/DTD/svg10.dtd">
<svg version="1.0" xmlns="http://www.w3.org/2000/svg"
 width="500.000000pt" height="343.000000pt" viewBox="0 0 500.000000 343.000000"
 preserveAspectRatio="xMidYMid meet">

<g transform="translate(0.000000,343.000000) scale(0.100000,-0.100000)"
fill="#000000" stroke="none">
<path d="M2258 3263 c-8 -10 -20 -37 -28 -60 -15 -50 -82 -137 -141 -186 -24
-19 -96 -68 -159 -107 -169 -106 -215 -144 -268 -224 -86 -129 -141 -348 -129
-518 3 -43 2 -78 -3 -78 -4 0 -31 20 -58 45 -67 60 -109 144 -118 234 l-6 69
-43 -30 c-78 -55 -250 -57 -545 -7 -194 33 -508 107 -705 165 -11 4 16 -27 61
-69 111 -104 146 -171 152 -287 7 -142 -36 -260 -144 -402 l-45 -58 74 0 c339
0 694 -183 853 -440 20 -33 39 -60 41 -60 2 0 34 15 71 34 243 122 486 110
636 -31 21 -20 90 -102 153 -181 152 -191 276 -325 410 -444 191 -170 297
-243 483 -332 216 -104 376 -145 595 -153 150 -6 256 8 354 47 l47 18 64 -49
c146 -109 295 -126 378 -43 32 32 34 38 30 87 -5 66 -38 132 -100 202 l-49 55
61 92 c115 172 170 306 170 415 0 35 -6 78 -14 96 -16 40 -75 93 -113 101 -27
6 -29 10 -46 104 -11 62 -14 119 -11 158 4 37 2 75 -5 97 -12 36 -71 97 -94
97 -7 0 -23 19 -36 43 -33 58 -100 144 -155 197 -25 24 -46 49 -46 56 0 6 18
32 41 57 87 100 275 161 531 175 l129 7 3 170 c3 185 14 240 71 376 17 41 53
109 80 150 51 80 173 211 236 255 22 15 38 28 36 30 -2 2 -73 -14 -158 -36
-570 -146 -958 -183 -1099 -104 -41 23 -46 24 -55 8 -5 -9 -60 -89 -122 -178
-140 -201 -250 -342 -403 -518 l-120 -138 -91 0 -91 0 -85 80 c-124 117 -167
121 -133 11 11 -34 20 -67 20 -73 0 -16 -211 6 -352 38 -76 17 -81 27 -43 73
40 47 119 80 218 91 120 14 163 32 178 77 6 19 9 57 7 83 -10 98 -82 150 -220
158 -56 3 -78 8 -78 18 0 7 19 64 41 126 23 62 51 148 62 190 l21 76 -20 48
c-35 86 -137 142 -176 97z m-48 -1356 c157 -53 321 -106 365 -117 201 -52 398
-63 571 -34 51 9 99 14 108 12 11 -2 -23 -62 -122 -215 -75 -116 -140 -214
-143 -217 -3 -3 -30 -1 -60 5 -105 21 -198 -32 -231 -133 -12 -36 -22 -47 -67
-70 -121 -61 -156 -108 -149 -195 l5 -54 -30 28 c-62 59 -83 142 -52 202 16
31 88 89 147 116 29 15 38 26 47 59 12 50 46 102 84 130 25 18 42 21 120 20
86 -1 90 -1 57 12 -19 7 -62 13 -96 13 -82 1 -140 -35 -178 -110 -14 -29 -26
-59 -26 -66 0 -7 -19 -22 -42 -34 -134 -68 -193 -170 -154 -264 l17 -39 -27
24 c-15 14 -40 45 -55 69 -35 54 -39 121 -10 164 19 29 100 92 131 102 10 3
27 31 39 64 25 70 82 126 136 137 20 3 62 1 92 -5 63 -12 81 -8 37 10 -47 18
-150 23 -184 9 -41 -17 -103 -89 -120 -139 -9 -29 -21 -43 -44 -53 -39 -16
-113 -83 -132 -119 -18 -37 -18 -100 1 -147 23 -55 97 -125 215 -204 58 -39
117 -80 131 -92 l25 -21 -69 -107 c-38 -60 -73 -108 -77 -108 -18 0 -206 174
-333 309 -135 143 -308 368 -359 467 -95 184 -140 370 -119 500 12 79 52 166
83 182 14 7 55 11 103 8 69 -3 119 -16 365 -99z m1866 -326 c97 -59 77 -244
-27 -244 -24 0 -40 9 -65 36 -57 61 -58 155 -3 201 36 31 54 32 95 7z m-606
-63 c64 -33 85 -67 85 -138 0 -63 -16 -95 -69 -134 -39 -29 -133 -29 -173 0
-33 24 -73 97 -73 134 0 49 42 113 90 138 24 12 56 22 70 22 14 0 46 -10 70
-22z m-500 -207 c0 -5 -72 -121 -161 -258 -88 -136 -165 -255 -169 -263 -7
-12 -15 -9 -45 20 -49 47 -88 129 -79 165 10 40 70 94 140 126 54 25 62 32 68
62 9 50 58 121 97 140 36 18 149 24 149 8z"/>
<path d="M4010 1510 c-11 -11 -20 -28 -20 -38 0 -29 29 -62 56 -62 29 0 64 32
64 60 0 11 -9 29 -20 40 -11 11 -29 20 -40 20 -11 0 -29 -9 -40 -20z"/>
<path d="M3360 1420 c-11 -11 -20 -29 -20 -40 0 -27 35 -60 63 -60 29 0 57 29
57 58 0 28 -34 62 -60 62 -11 0 -29 -9 -40 -20z"/>
</g>
</svg>
